<svg xmlns="http://www.w3.org/2000/svg" xmlns:xlink="http://www.w3.org/1999/xlink" width="220" height="150"><defs><path d="M10 0h200c5.523 0 10 4.477 10 10v140H0V10C0 4.477 4.477 0 10 0z" id="A"/></defs><g fill="none" fill-rule="evenodd"><mask id="B" fill="#fff"><use xlink:href="#A"/></mask><use fill="#f0f7ff" xlink:href="#A"/><g mask="url(#B)"><g fill="#6aa5fe" fill-rule="nonzero"><path d="M57.97 95.56v7.92c0 .77-.66 1.54-1.54 1.54s-1.43-.66-1.43-1.54v-7.92a1.5 1.5 0 0 1 1.54-1.54c.88 0 1.43.66 1.43 1.54zm105.5-1.54c-.77 0-1.54.66-1.54 1.54v7.92c0 .77.66 1.54 1.54 1.54a1.5 1.5 0 0 0 1.54-1.54v-7.92a1.5 1.5 0 0 0-1.54-1.54zm-85.58-2.1c-.77 0-1.54.66-1.54 1.54v12.32c0 .77.66 1.54 1.54 1.54a1.5 1.5 0 0 0 1.54-1.54V93.36c0-.77-.66-1.43-1.54-1.43zm-10.67-5.6c-.77 0-1.54.66-1.54 1.54v23.32c0 .77.66 1.54 1.54 1.54a1.5 1.5 0 0 0 1.54-1.54V87.86c-.1-.88-.77-1.54-1.54-1.54zm53.46-3.63c-.77 0-1.54.66-1.54 1.54v30.8c0 .77.66 1.54 1.54 1.54.77 0 1.54-.66 1.54-1.54v-30.9c0-.77-.66-1.43-1.54-1.43zm32.12 6.27c-.77 0-1.54.66-1.54 1.54v18.26c0 .77.66 1.54 1.54 1.54.77 0 1.54-.66 1.54-1.54V90.4c0-.77-.66-1.43-1.54-1.43zM88.55 76.1c-.77 0-1.54.66-1.54 1.54v43.9c0 .77.66 1.54 1.54 1.54.77 0 1.54-.66 1.54-1.54v-43.9a1.5 1.5 0 0 0-1.54-1.54zm42.9 0c-.77 0-1.54.66-1.54 1.54v43.9c0 .77.66 1.54 1.54 1.54.77 0 1.54-.66 1.54-1.54v-43.9c-.1-.88-.77-1.54-1.54-1.54zm10.67.1c-.77 0-1.54.66-1.54 1.54v43.67c0 .77.66 1.54 1.54 1.54a1.5 1.5 0 0 0 1.54-1.54V77.74c-.1-.88-.77-1.54-1.54-1.54zm-42.8-7.7c-.77 0-1.54.66-1.54 1.54V129c0 .77.66 1.54 1.54 1.54.77 0 1.54-.66 1.54-1.54V70.04c-.1-.77-.77-1.54-1.54-1.54zm10.67 0c-.77 0-1.54.66-1.54 1.54V129c0 .77.66 1.54 1.54 1.54a1.5 1.5 0 0 0 1.54-1.54V70.04c0-.77-.77-1.54-1.54-1.54z"/></g><rect fill="#4a90e2" transform="matrix(1 0 0 -1 78.1 52)" width="83.6" height="33" rx="16.5"/><g fill-rule="nonzero" fill="#fff"><path d="M119.714 39v-7.387h2.78v-1.17h-6.866v1.17h2.785V39h1.302zm9.84 0v-1.23h-4.36v-2.458h4.008v-1.2h-4.008v-2.47h4.36v-1.2h-5.66V39h5.66zm2.6 0l2.234-3.415L136.63 39h1.556l-2.906-4.293 2.876-4.262h-1.55l-2.216 3.433-2.216-3.433h-1.556l2.882 4.262L130.594 39h1.55zm10.65 0v-7.387h2.78v-1.17h-6.866v1.17h2.785V39h1.302zM97.53 36.684a3.27 3.27 0 0 1-.415-.028l.2.028a3.1 3.1 0 0 1-.753-.206l.188.08c-.243-.104-.47-.236-.68-.398l.16.123a3.1 3.1 0 0 1-.537-.537l.123.16a3.17 3.17 0 0 1-.398-.68l.08.188a3.07 3.07 0 0 1-.206-.753l.028.2c-.032-.232-.028-.465-.028-.697V30.9l.028-.8-.028.2a3.1 3.1 0 0 1 .206-.753l-.08.188c.104-.243.236-.47.398-.68l-.123.16a3.1 3.1 0 0 1 .537-.537l-.16.123a3.17 3.17 0 0 1 .68-.398l-.188.08a3.07 3.07 0 0 1 .753-.206l-.2.028c.276-.037.554-.037.83 0l-.2-.028a3.1 3.1 0 0 1 .753.206l-.188-.08c.243.104.47.236.68.398l-.16-.123a3.1 3.1 0 0 1 .537.537l-.123-.16a3.17 3.17 0 0 1 .398.68l-.08-.188a3.07 3.07 0 0 1 .206.753l-.028-.2c.032.232.028.465.028.697v3.277l-.028.8.028-.2a3.1 3.1 0 0 1-.206.753l.08-.188c-.104.243-.236.47-.398.68l.123-.16a3.1 3.1 0 0 1-.537.537l.16-.123a3.17 3.17 0 0 1-.68.398l.188-.08a3.07 3.07 0 0 1-.753.206l.2-.028a2.96 2.96 0 0 1-.415.028c-.204 0-.415.088-.56.232a.81.81 0 0 0-.232.56c.01.204.076.417.232.56a.82.82 0 0 0 .56.232 3.83 3.83 0 0 0 2.012-.574c.576-.364 1.074-.884 1.378-1.496a3.92 3.92 0 0 0 .42-1.756V31.41c0-.708.04-1.43-.204-2.108-.23-.642-.6-1.243-1.144-1.676-.266-.22-.544-.414-.86-.553a4.47 4.47 0 0 0-.577-.218 4.21 4.21 0 0 0-.609-.111c-.36-.048-.708-.02-1.065.032-.348.05-.674.17-.994.315-.627.283-1.15.77-1.535 1.336-.394.577-.602 1.28-.63 1.975l-.002.547v2.346c0 .656-.042 1.332.1 1.978.276 1.36 1.37 2.485 2.696 2.855.33.092.68.14 1.024.14.202 0 .417-.088.56-.232a.81.81 0 0 0 .232-.56c-.01-.204-.076-.417-.232-.56a.83.83 0 0 0-.56-.229zm4.67-3.3c0 .607.032 1.227-.05 1.83l.028-.2c-.065.48-.194.947-.382 1.392l.08-.188a5.51 5.51 0 0 1-.7 1.197l.123-.16a5.5 5.5 0 0 1-.991.991l.16-.123a5.55 5.55 0 0 1-1.197.7l.188-.08a5.54 5.54 0 0 1-1.392.382l.2-.028c-.486.065-.98.065-1.466 0l.2.028c-.48-.065-.947-.194-1.392-.382l.188.08a5.51 5.51 0 0 1-1.197-.7l.16.123a5.5 5.5 0 0 1-.991-.991l.123.16a5.55 5.55 0 0 1-.7-1.197l.08.188a5.54 5.54 0 0 1-.382-1.392l.028.2c-.08-.604-.05-1.223-.05-1.83 0-.202-.088-.417-.232-.56a.81.81 0 0 0-.56-.232c-.204.01-.417.076-.56.232a.82.82 0 0 0-.232.56v1.095a6.12 6.12 0 0 0 .414 2.23c.153.385.33.76.553 1.1.22.343.475.67.755.968.514.542 1.14 1.003 1.818 1.32.774.36 1.6.57 2.448.6a6.1 6.1 0 0 0 2.3-.34 6.46 6.46 0 0 0 2.107-1.243c.563-.496 1.042-1.114 1.383-1.783a6.43 6.43 0 0 0 .676-2.395c.04-.468.02-.943.02-1.413v-.153c0-.202-.088-.417-.232-.56a.81.81 0 0 0-.56-.232c-.204.01-.417.076-.56.232a.83.83 0 0 0-.227.558h0z"/><path d="M96.747 39.932v2.636c0 .202.088.417.232.56.137.137.363.24.56.232.204-.01.417-.076.56-.232a.82.82 0 0 0 .232-.56v-2.636c0-.202-.088-.417-.232-.56-.137-.137-.363-.24-.56-.232-.204.01-.417.076-.56.232a.82.82 0 0 0-.232.56h0z"/><path d="M94.894 43.37h5.292c.202 0 .417-.088.56-.232.137-.137.24-.363.232-.56-.01-.204-.076-.417-.232-.56a.82.82 0 0 0-.56-.232h-5.292c-.202 0-.417.088-.56.232-.137.137-.24.363-.232.56.01.204.076.417.232.56s.345.232.56.232h0z"/></g><path d="M109.99 48.925c-3.3 2.55-4.96 5.63-4.95 9.24.016 5.417-5.592-3.846-4.876-9.896.477-4.033 3.753-3.815 9.826.656z" fill="#4a90e2"/></g></g></svg>