<svg xmlns="http://www.w3.org/2000/svg" xmlns:xlink="http://www.w3.org/1999/xlink" width="220" height="150"><defs><path d="M10 0h200c5.523 0 10 4.477 10 10v140H0V10C0 4.477 4.477 0 10 0z" id="A"/><path id="B" d="M80.04 114.044c.064 1.217-.897 2.178-2.05 2.178-1.217 0-2.242-.96-2.306-2.178s.897-2.178 2.05-2.178 2.242.96 2.306 2.178z"/><path id="C" d="M74.466 135.697c.064 1.217-.897 2.178-2.05 2.178-1.217 0-2.242-.96-2.306-2.178s.897-2.178 2.05-2.178 2.242 1.025 2.306 2.178z"/><path id="D" d="M87.92 135.697c.064 1.217-.897 2.178-2.05 2.178-1.217 0-2.242-.96-2.306-2.178s.897-2.178 2.05-2.178c1.217 0 2.242 1.025 2.306 2.178z"/><path id="E" d="M175.373 90.52l.96 1.922c.064.128-.128.32-.384.32h-22.87c-.192 0-.384-.128-.384-.192l-.192-1.922c0-.128.128-.256.384-.256h22.038c.256-.064.448 0 .448.128z"/><path id="F" d="M175.116 78.797c-3.524-6.535-4.933-6.983-5.574-9.097 0 0 .577-1.602 1.986-3.203a14.55 14.55 0 0 0-1.922-.384c.064-.256.128-.577.192-.833-.448-.128-1.473 0-1.922.064v-.64s-1.794-.384-2.498-.128l.192.897-2.114.448c1.345 1.538 1.858 3.14 1.986 3.588-1.858 3.203-9.225 24.024 2.69 25.626 11.98 1.538 10.442-9.738 6.983-16.336z"/></defs><g fill="none" fill-rule="evenodd"><mask id="G" fill="#fff"><use xlink:href="#A"/></mask><use fill="#f0f7ff" xlink:href="#A"/><g mask="url(#G)" fill-rule="nonzero"><g fill="#fff"><path d="M134.43 182.336H52.685c-2.69 0-4.997-2.178-5.125-4.87L40.256 35.5c-.128-2.69 1.922-4.87 4.613-4.87h81.746c2.69 0 4.997 2.178 5.125 4.87l7.303 141.966c.192 2.69-1.922 4.87-4.613 4.87z"/></g><path d="M137.954 173.303H59.796c-2.563 0-4.805-2.114-4.933-4.677L47.88 32.875c-.128-2.563 1.858-4.677 4.42-4.677h78.158c2.563 0 4.805 2.114 4.933 4.677l6.983 135.752c.128 2.627-1.858 4.677-4.42 4.677z" fill="#6aa5fe"/><g fill="#fff"><path d="M137.954 170.228H59.796c-.897 0-1.73-.77-1.794-1.73L51.02 32.747c0-.513.192-.833.32-1.025.192-.192.448-.384.96-.384h78.158c.897 0 1.73.77 1.794 1.73L139.3 168.82c0 .513-.192.833-.32 1.025-.256.128-.513.384-1.025.384zM52.3 31.53c-.448 0-.705.192-.833.32s-.32.448-.32.897L58.13 168.5c.064.833.833 1.538 1.666 1.538h78.158c.448 0 .705-.192.833-.32s.32-.448.32-.897l-6.983-135.752c-.064-.833-.833-1.538-1.666-1.538H52.3z"/><ellipse opacity=".3" transform="matrix(.697898 -.716198 .716198 .697898 30.319897 76.888544)" cx="53.229" cy="35.969" rx="23.063" ry="24.28"/><path d="M112.392 63.882c.192 3.33-.513 6.406-1.858 9.097-2.947 5.958-9.033 9.994-16.336 9.994s-13.838-4.036-17.36-9.994c-1.602-2.69-2.627-5.83-2.755-9.097-.577-10.57 7.56-19.155 18.13-19.155s19.604 8.585 20.18 19.155z"/></g><g fill="#6aa5fe"><path d="M110.534 72.98c-2.947 5.958-9.033 9.994-16.336 9.994s-13.838-4.036-17.36-9.994c4.677-3.203 10.314-5.125 16.593-5.125s12.108 1.922 17.105 5.125z"/><ellipse transform="matrix(.697898 -.716198 .716198 .697898 34.915625 74.684422)" cx="52.914" cy="29.419" rx="8.328" ry="8.777"/></g><path d="M126.742 120.514H65.56c-1.09 0-2.05-.897-2.05-1.986l-.448-8.97a1.85 1.85 0 0 1 1.858-1.986h61.18c1.09 0 2.05.897 2.05 1.986l.448 8.97a1.85 1.85 0 0 1-1.858 1.986z" fill="#fff"/><path d="M108.036 102.64H82.474c-1.09 0-2.05-.897-2.05-1.986l-.128-1.922a1.85 1.85 0 0 1 1.858-1.986h25.562c1.09 0 2.05.897 2.05 1.986l.128 1.922a1.85 1.85 0 0 1-1.858 1.986z" fill="#000" opacity=".3"/><path d="M127.895 142.232h-61.18c-1.09 0-2.05-.897-2.05-1.986l-.448-8.97a1.85 1.85 0 0 1 1.858-1.986h61.18c1.09 0 2.05.897 2.05 1.986l.448 8.97a1.85 1.85 0 0 1-1.858 1.986z" fill="#fff"/><g fill="#263238"><path d="M73.313 114.044c.064 1.217-.897 2.178-2.05 2.178s-2.242-.96-2.306-2.178.897-2.178 2.05-2.178 2.242.96 2.306 2.178z"/><use xlink:href="#B"/><use xlink:href="#B" x="6.726"/><path d="M93.493 114.044c.064 1.217-.897 2.178-2.05 2.178s-2.242-.96-2.306-2.178.897-2.178 2.05-2.178c1.217 0 2.306.96 2.306 2.178z"/><use xlink:href="#C"/><use xlink:href="#C" x="6.727"/><use xlink:href="#D"/><use xlink:href="#D" x="6.726"/><path d="M101.373 135.697c.064 1.217-.897 2.178-2.05 2.178s-2.242-.96-2.306-2.178.897-2.178 2.05-2.178 2.242 1.025 2.306 2.178z"/><use xlink:href="#C" x="33.634"/></g><g fill="#eab09d"><path d="M180.883 64.5c.192.256.256.384.32.513l.256.448c.192.32.32.64.513.96l.897 1.922c.577 1.28 1.025 2.563 1.41 3.908a43.1 43.1 0 0 1 1.538 8.008l.064.513v.64l-.064 1.345c-.128.833-.32 1.666-.64 2.37-.577 1.473-1.345 2.69-2.242 3.844-1.73 2.242-3.716 4.036-5.958 5.638l-1.794-2.05c1.602-1.858 3.14-3.844 4.228-5.894.577-1.025 1.025-2.05 1.28-3.01.128-.513.192-.96.192-1.345v-.897l-.064-.448c-.448-2.434-.96-4.74-1.73-7.047l-1.28-3.33-.77-1.602-.577-1.153-.192-.256 4.613-3.075z"/><path d="M174.925 94.75l2.306 4.87 1.858-4.164s-1.602-3.588-3.844-3.267l-.32 2.563z"/><path d="M178.897 99.874l1.858-3-1.666-1.345-1.858 4.1zM169.48 45.74c-.64 3.203-2.05 10.122.192 12.236 0 0-.897 3.203-6.8 3.203-6.535 0-3.14-3.203-3.14-3.203 3.524-.833 3.46-3.46 2.82-5.958l6.92-6.278z"/></g><path d="M158.653 38.244h.128c.128-.064.192-.192.128-.32-.64-1.28-1.794-1.41-1.858-1.41-.128 0-.256.064-.256.192s.064.256.192.256h0c.064 0 .96.128 1.473 1.153 0 .064.064.128.192.128z" fill="#263238"/><path d="M156.667 41.063s-.96 1.73-1.858 2.563c.513.577 1.473.448 1.473.448l.384-3.01z" fill="#eab09d"/><g fill="#263238"><path d="M157.18 40.358c-.064.448-.32.77-.577.705s-.448-.384-.384-.833.32-.77.577-.705c.256 0 .448.384.384.833z"/><path d="M156.86 39.526l-.96-.384s.448.833.96.384z"/></g><path d="M178.96 59.257c2.242.513 4.613 8.52 4.613 8.52l-6.278 6.727s-5.253-7.56-4.164-10.314c1.025-2.947 3.14-5.5 5.83-4.933z" fill="#fff"/><path d="M175.373 64.318c-1.153-1.025-1.858-.705-2.434.064-.513 2.37 2.498 7.367 3.78 9.29.577-2.242 1.217-6.983-1.345-9.353z" fill="#dfecfc" opacity=".52"/><path d="M150.71 59.385s-2.563.897 2.563 32.416h21.782c-.384-8.84-.384-14.35 3.844-32.545 0 0-4.55-1.025-9.225-1.217-3.652-.192-6.663-.32-9.866 0-4.292.384-9.097 1.345-9.097 1.345z" fill="#fff"/><path d="M150.516 71.493l.577 5.19c1.794-1.602 3.267-6.15 2.69-8.84-1.217.897-2.37 2.37-3.267 3.652z" fill="#dfecfc" opacity=".52"/><path d="M152.823 66.69L148.85 75.4c-1.473 2.82-3.01 5.638-5.125 8.328l-.577.77-.256.256c-.384.448-.833.833-1.28 1.153-.897.64-1.794 1.025-2.69 1.345-1.794.577-3.46.833-5.125.897-3.33.128-6.535-.192-9.738-.833l.384-2.69 4.484-.128c1.473-.064 2.947-.256 4.42-.513 1.41-.256 2.82-.577 3.908-1.09.577-.256 1.025-.577 1.41-.833.192-.128.32-.32.448-.448 0 0 .064-.128.128-.192l.128-.192.32-.448c1.602-2.306 2.947-5.06 4.292-7.752l3.716-8.328 5.125 1.986z" fill="#eab09d"/><path d="M150.71 59.385c-2.69.64-5.958 7.944-5.958 7.944l5.5 8.136s7.367-9.29 6.47-12.108c-.833-2.947-2.755-4.74-6.022-3.972z" fill="#fff"/><g fill="#eab09d"><path d="M125.98 84.947l-4.613-2.114-.448 4.613s3.844 1.153 5.766 0l-.705-2.498z"/><path d="M118.613 82.384l-.448 3.46 2.755 1.538.448-4.55zm53.173-41.704c-.96 5.253-1.28 7.495-4.292 9.866-4.484 3.588-10.7 1.217-11.34-4.164-.577-4.87 1.153-12.62 6.535-14.094s10.058 3.14 9.097 8.392z"/></g><path d="M160.318 41.768c-.32 2.69-.384 9.6 5.445 9.802 7.175.256 9.353-5.894 8.713-8.328 3.716-3.075 4.292-8.264.064-12.3s-13.453-1.794-16.016 2.114c-3.267 4.87 1.794 8.713 1.794 8.713z" fill="#1a55b5"/><path d="M167.493 32.543c-.32-2.82-.064-4.74 2.563-4.74s6.214.96 7.56 3.652 1.41 6.92-2.242 6.47c-3.716-.448-7.43-2.05-7.88-5.38z" fill="#ffb750"/><path d="M171.593 31.838c-.64-3.33 2.37-12.813 9.674-13.453 3.395-.256 4.933 3.33 3.203 3.972 3.203-.064 5.253 4.164 2.242 4.805 2.37 1.538 1.794 4.613-1.602 6.15-2.498 1.153-12.685 3.203-13.518-1.473z" fill="#1a55b5"/><path d="M179.345 35.49c-2.37 0-4.805-.32-6.342-1.345-.897-.64-1.41-1.41-1.538-2.434 0-.064.064-.192.128-.192s.192.064.192.128c.064.897.513 1.666 1.345 2.178 2.883 1.922 9.6 1.28 11.724.64 1.794-.577 3.01-1.73 3.267-3.075.192-.96-.192-1.922-1.09-2.563-.064-.064-.064-.128 0-.256.064-.064.128-.064.256 0 .96.77 1.41 1.794 1.217 2.883-.256 1.41-1.538 2.69-3.46 3.33-1.09.32-3.33.705-5.702.705z" fill="#263238"/><path d="M158.653 41.063c-.64.897-.833 1.986-.705 2.883.192 1.345 1.538 1.41 2.498.577.833-.77 1.794-2.434 1.09-3.524s-2.114-.96-2.883.064z" fill="#ca8f7c"/><path d="M159.037 91.802s3.14 36.837 6.342 57.594c2.627 16.785 4.677 55.928 4.677 55.928h7.303s2.627-38 1.28-54.583c-3.33-41.962 4.1-45.357-3.588-58.94h-16.016z" fill="#262376"/><path d="M168.262 105.704c-2.947 3.01-5.19 6.6-6.92 10.442l2.947 25.497c3.33-8.392 6.15-21.333 3.972-35.94z" fill="#000" opacity=".4"/><path d="M153.912 91.545s-6.727 40.232-7.816 58.362c2.627 16.785 13.518 52.212 13.518 52.212l6.663-2.434s-3.652-38.63-7.688-49.2c9.033-30.366 15.632-38 13.7-58.683-4.613 0-18.386-.256-18.386-.256z" fill="#262376"/><use xlink:href="#E" fill="#407bff"/><use xlink:href="#E" fill="#000" opacity=".5"/><g fill="#407bff"><path d="M172.426 92.955h.577c.128 0 .192-.064.192-.128l-.256-2.563c0-.064-.128-.128-.256-.128h-.577c-.128 0-.192.064-.192.128l.256 2.563c.064.064.128.128.256.128zm-7.944-18.642c-.128 0-.256-.128-.32-.256-2.114-7.752-6.406-14.094-8.52-15.055-.256-.128-.448-.128-.513-.064-.192.064-.32 0-.448-.192-.064-.192 0-.32.192-.448.32-.128.64-.128 1.1.064 2.242 1.025 6.6 7.303 8.777 15.247 1.602 0 3.972-.192 4.55-.256.705-.897 6.086-7.56 4.1-14.927-.064-.192.064-.32.256-.384s.32.064.384.256c2.242 8.2-4.228 15.568-4.292 15.632s-.128.128-.192.128c-.064-.064-3.267.256-5.06.256z"/><use xlink:href="#F"/></g><use xlink:href="#F" fill="#fff" opacity=".4"/><g fill="#407bff"><path d="M165.058 68.867c-.064.128-.064.77-.064 1.025s.64.384 1.345.448 3.716.192 3.588-.128c-.064-.32.128-.77.128-1.1 0-.256-1.217-.32-2.178-.256s-2.627-.32-2.82 0zm-6.982 24.088h.577c.128 0 .192-.064.192-.128l-.256-2.563c0-.064-.128-.128-.256-.128h-.513c-.128 0-.192.064-.192.128l.256 2.563c0 .064.128.128.192.128z"/></g></g></g></svg>