<svg xmlns="http://www.w3.org/2000/svg" xmlns:xlink="http://www.w3.org/1999/xlink" width="220" height="150"><style><![CDATA[.B{opacity:.1}.C{fill:#010101}.D{fill:#6aa5fe}.E{fill-rule:nonzero}.F{fill:#f0f7ff}.G{stroke-width:1.43}.H{fill:#1a55b5}.I{fill:#eab09d}]]></style><defs><path d="M10 0h200c5.523 0 10 4.477 10 10v140H0V10C0 4.477 4.477 0 10 0z" id="A"/><linearGradient x1="49.8404762%" y1="-14.35%" x2="49.8404762%" y2="107.812766%" id="B"><stop stop-color="#fcd223" offset="0%"/><stop stop-color="#f9a342" offset="100%"/></linearGradient><linearGradient x1="49.7901042%" y1="-1.7293614%" x2="49.7901042%" y2="99.324767%" id="C"><stop stop-color="#f9a342" offset="0%"/><stop stop-color="#fcd223" offset="100%"/></linearGradient><linearGradient x1="49.2692708%" y1="-16.840625%" x2="49.2692708%" y2="151.965625%" id="D"><stop stop-color="#f9a342" offset="0%"/><stop stop-color="#fcd223" stop-opacity="0" offset="100%"/></linearGradient><linearGradient x1="48.6178571%" y1="123%" x2="48.6178571%" y2="-48.25625%" id="E"><stop stop-color="#f9a342" offset="0%"/><stop stop-color="#fcd223" stop-opacity="0" offset="100%"/></linearGradient><linearGradient x1="49.9714094%" y1="-66.474%" x2="49.9714094%" y2="147.676%" id="F"><stop stop-color="#f9a342" offset="0%"/><stop stop-color="#fcd223" offset="100%"/></linearGradient><linearGradient x1="53.136%" y1="-23.4636364%" x2="53.136%" y2="537.454545%" id="G"><stop stop-color="#f9a342" offset="0%"/><stop stop-color="#fcd223" stop-opacity="0" offset="100%"/></linearGradient><linearGradient x1="49.9369048%" y1="-13.7265957%" x2="49.9369048%" y2="108.43617%" id="H"><stop stop-color="#fcd223" offset="0%"/><stop stop-color="#f9a342" offset="100%"/></linearGradient><linearGradient x1="49.9171875%" y1="-0.813793103%" x2="49.9171875%" y2="100.334483%" id="I"><stop stop-color="#f9a342" offset="0%"/><stop stop-color="#fcd223" offset="100%"/></linearGradient><linearGradient x1="49.3963542%" y1="-18.134375%" x2="49.3963542%" y2="150.671875%" id="J"><stop stop-color="#f9a342" offset="0%"/><stop stop-color="#fcd223" stop-opacity="0" offset="100%"/></linearGradient><linearGradient x1="49.9369048%" y1="100.217241%" x2="49.9369048%" y2="0.110344828%" id="K"><stop stop-color="#f9a342" offset="0%"/><stop stop-color="#faa442" offset="0%"/><stop stop-color="#fcd223" offset="100%"/></linearGradient><linearGradient x1="50.6012346%" y1="102.15119%" x2="50.6012346%" y2="30.1559524%" id="L"><stop stop-color="#f9a342" offset="0%"/><stop stop-color="#fcd223" stop-opacity="0" offset="100%"/></linearGradient><linearGradient x1="47.9690363%" y1="123.915625%" x2="47.9690363%" y2="-47.340625%" id="M"><stop stop-color="#f9a342" offset="0%"/><stop stop-color="#fcd223" stop-opacity="0" offset="100%"/></linearGradient><linearGradient x1="50.2025987%" y1="-67.3%" x2="50.2025987%" y2="146.846%" id="N"><stop stop-color="#f9a342" offset="0%"/><stop stop-color="#fcd223" offset="100%"/></linearGradient><linearGradient x1="54.108%" y1="-27.2272727%" x2="54.108%" y2="533.709091%" id="O"><stop stop-color="#f9a342" offset="0%"/><stop stop-color="#fcd223" stop-opacity="0" offset="100%"/></linearGradient><linearGradient x1="50.96%" y1="-146.123077%" x2="50.96%" y2="328.530769%" id="P"><stop stop-color="#f9a342" offset="0%"/><stop stop-color="#fcd223" stop-opacity="0" offset="100%"/></linearGradient><linearGradient x1="49.8019841%" y1="-14.3170213%" x2="49.8019841%" y2="107.845745%" id="Q"><stop stop-color="#fcd223" offset="0%"/><stop stop-color="#f9a342" offset="100%"/></linearGradient><linearGradient x1="49.7395833%" y1="-1.67596287%" x2="49.7395833%" y2="99.3781655%" id="R"><stop stop-color="#f9a342" offset="0%"/><stop stop-color="#fcd223" offset="100%"/></linearGradient><linearGradient x1="49.21875%" y1="-16.74375%" x2="49.21875%" y2="152.059375%" id="S"><stop stop-color="#f9a342" offset="0%"/><stop stop-color="#fcd223" stop-opacity="0" offset="100%"/></linearGradient><linearGradient x1="50.1988095%" y1="100.728736%" x2="50.1988095%" y2="0.62183908%" id="T"><stop stop-color="#f9a342" offset="0%"/><stop stop-color="#faa442" offset="0%"/><stop stop-color="#fcd223" offset="100%"/></linearGradient><linearGradient x1="50.1802469%" y1="101.490476%" x2="50.1802469%" y2="29.4952381%" id="U"><stop stop-color="#f9a342" offset="0%"/><stop stop-color="#fcd223" stop-opacity="0" offset="100%"/></linearGradient><linearGradient x1="51.9866667%" y1="157.8225%" x2="51.9866667%" y2="-15.56%" id="V"><stop stop-color="#f9a342" offset="0%"/><stop stop-color="#fcd223" stop-opacity="0" offset="100%"/></linearGradient><linearGradient x1="48.53125%" y1="123.048437%" x2="48.53125%" y2="-48.2078125%" id="W"><stop stop-color="#f9a342" offset="0%"/><stop stop-color="#fcd223" stop-opacity="0" offset="100%"/></linearGradient><linearGradient x1="49.8791239%" y1="-66.412%" x2="49.8791239%" y2="147.736%" id="X"><stop stop-color="#f9a342" offset="0%"/><stop stop-color="#fcd223" offset="100%"/></linearGradient><linearGradient x1="52.748%" y1="-23.1818182%" x2="52.748%" y2="537.754545%" id="Y"><stop stop-color="#f9a342" offset="0%"/><stop stop-color="#fcd223" stop-opacity="0" offset="100%"/></linearGradient><linearGradient x1="49.9885714%" y1="-142.692308%" x2="49.9885714%" y2="331.946154%" id="Z"><stop stop-color="#f9a342" offset="0%"/><stop stop-color="#fcd223" stop-opacity="0" offset="100%"/></linearGradient><linearGradient x1="49.8599206%" y1="-13.6946809%" x2="49.8599206%" y2="108.469149%" id="a"><stop stop-color="#fcd223" offset="0%"/><stop stop-color="#f9a342" offset="100%"/></linearGradient><linearGradient x1="49.815625%" y1="-0.760344828%" x2="49.815625%" y2="100.387931%" id="b"><stop stop-color="#f9a342" offset="0%"/><stop stop-color="#fcd223" offset="100%"/></linearGradient><linearGradient x1="49.2947917%" y1="-18.0375%" x2="49.2947917%" y2="150.765625%" id="c"><stop stop-color="#f9a342" offset="0%"/><stop stop-color="#fcd223" stop-opacity="0" offset="100%"/></linearGradient><linearGradient x1="50.256746%" y1="100.252874%" x2="50.256746%" y2="0.144827586%" id="d"><stop stop-color="#f9a342" offset="0%"/><stop stop-color="#faa442" offset="0%"/><stop stop-color="#fcd223" offset="100%"/></linearGradient><linearGradient x1="50.3604938%" y1="102.186905%" x2="50.3604938%" y2="30.1928571%" id="e"><stop stop-color="#f9a342" offset="0%"/><stop stop-color="#fcd223" stop-opacity="0" offset="100%"/></linearGradient><linearGradient x1="52.96%" y1="156.785%" x2="52.96%" y2="-16.595%" id="f"><stop stop-color="#f9a342" offset="0%"/><stop stop-color="#fcd223" stop-opacity="0" offset="100%"/></linearGradient><linearGradient x1="48.6616071%" y1="123.964062%" x2="48.6616071%" y2="-47.2921875%" id="g"><stop stop-color="#f9a342" offset="0%"/><stop stop-color="#fcd223" stop-opacity="0" offset="100%"/></linearGradient><linearGradient x1="50.0180278%" y1="-67.24%" x2="50.0180278%" y2="146.908%" id="h"><stop stop-color="#f9a342" offset="0%"/><stop stop-color="#fcd223" offset="100%"/></linearGradient><linearGradient x1="53.332%" y1="-26.9454545%" x2="53.332%" y2="533.972727%" id="i"><stop stop-color="#f9a342" offset="0%"/><stop stop-color="#fcd223" stop-opacity="0" offset="100%"/></linearGradient><linearGradient x1="50.4057143%" y1="-145.884615%" x2="50.4057143%" y2="328.769231%" id="j"><stop stop-color="#f9a342" offset="0%"/><stop stop-color="#fcd223" stop-opacity="0" offset="100%"/></linearGradient><linearGradient x1="49.9944444%" y1="-13.6351064%" x2="49.9944444%" y2="108.528723%" id="k"><stop stop-color="#fcd223" offset="0%"/><stop stop-color="#f9a342" offset="100%"/></linearGradient><linearGradient x1="49.9921875%" y1="-0.663793103%" x2="49.9921875%" y2="100.484483%" id="l"><stop stop-color="#f9a342" offset="0%"/><stop stop-color="#fcd223" offset="100%"/></linearGradient><linearGradient x1="49.4713542%" y1="-17.8625%" x2="49.4713542%" y2="150.940625%" id="m"><stop stop-color="#f9a342" offset="0%"/><stop stop-color="#fcd223" stop-opacity="0" offset="100%"/></linearGradient><linearGradient x1="48.0984333%" y1="124.05%" x2="48.0984333%" y2="-47.20625%" id="n"><stop stop-color="#f9a342" offset="0%"/><stop stop-color="#fcd223" stop-opacity="0" offset="100%"/></linearGradient><linearGradient x1="49.3891547%" y1="-67.128%" x2="49.3891547%" y2="147.02%" id="o"><stop stop-color="#f9a342" offset="0%"/><stop stop-color="#fcd223" offset="100%"/></linearGradient><linearGradient x1="54.688%" y1="-26.4454545%" x2="54.688%" y2="534.5%" id="p"><stop stop-color="#f9a342" offset="0%"/><stop stop-color="#fcd223" stop-opacity="0" offset="100%"/></linearGradient><linearGradient x1="49.9555556%" y1="-14.2478723%" x2="49.9555556%" y2="107.915957%" id="q"><stop stop-color="#fcd223" offset="0%"/><stop stop-color="#f9a342" offset="100%"/></linearGradient><linearGradient x1="49.9416667%" y1="-1.56227568%" x2="49.9416667%" y2="99.4918527%" id="r"><stop stop-color="#f9a342" offset="0%"/><stop stop-color="#fcd223" offset="100%"/></linearGradient><linearGradient x1="49.4208333%" y1="-16.5375%" x2="49.4208333%" y2="152.265625%" id="s"><stop stop-color="#f9a342" offset="0%"/><stop stop-color="#fcd223" stop-opacity="0" offset="100%"/></linearGradient><linearGradient x1="49.9555556%" y1="100.804598%" x2="49.9555556%" y2="0.696551724%" id="t"><stop stop-color="#f9a342" offset="0%"/><stop stop-color="#faa442" offset="0%"/><stop stop-color="#fcd223" offset="100%"/></linearGradient><linearGradient x1="50.6592593%" y1="101.569048%" x2="50.6592593%" y2="29.5738095%" id="u"><stop stop-color="#f9a342" offset="0%"/><stop stop-color="#fcd223" stop-opacity="0" offset="100%"/></linearGradient><linearGradient x1="48.0109788%" y1="123.151562%" x2="48.0109788%" y2="-48.1046875%" id="v"><stop stop-color="#f9a342" offset="0%"/><stop stop-color="#fcd223" stop-opacity="0" offset="100%"/></linearGradient><linearGradient x1="50.2473144%" y1="-66.28%" x2="50.2473144%" y2="147.868%" id="w"><stop stop-color="#f9a342" offset="0%"/><stop stop-color="#fcd223" offset="100%"/></linearGradient><linearGradient x1="54.296%" y1="-22.5818182%" x2="54.296%" y2="538.336364%" id="x"><stop stop-color="#f9a342" offset="0%"/><stop stop-color="#fcd223" stop-opacity="0" offset="100%"/></linearGradient><linearGradient x1="51.0942857%" y1="-142.184615%" x2="51.0942857%" y2="332.446154%" id="y"><stop stop-color="#f9a342" offset="0%"/><stop stop-color="#fcd223" stop-opacity="0" offset="100%"/></linearGradient><linearGradient x1="49.9365079%" y1="-13.6893617%" x2="49.9365079%" y2="108.474468%" id="z"><stop stop-color="#fcd223" offset="0%"/><stop stop-color="#f9a342" offset="100%"/></linearGradient><linearGradient x1="49.9161458%" y1="-0.751724138%" x2="49.9161458%" y2="100.396552%" id="AA"><stop stop-color="#f9a342" offset="0%"/><stop stop-color="#fcd223" offset="100%"/></linearGradient><linearGradient x1="49.3953125%" y1="-18.021875%" x2="49.3953125%" y2="150.784375%" id="AB"><stop stop-color="#f9a342" offset="0%"/><stop stop-color="#fcd223" stop-opacity="0" offset="100%"/></linearGradient><linearGradient x1="49.9365079%" y1="100.258621%" x2="49.9365079%" y2="0.150574713%" id="AC"><stop stop-color="#f9a342" offset="0%"/><stop stop-color="#faa442" offset="0%"/><stop stop-color="#fcd223" offset="100%"/></linearGradient><linearGradient x1="50.6%" y1="102.194048%" x2="50.6%" y2="30.1988095%" id="AD"><stop stop-color="#f9a342" offset="0%"/><stop stop-color="#fcd223" stop-opacity="0" offset="100%"/></linearGradient><linearGradient x1="54.2466667%" y1="156.7975%" x2="54.2466667%" y2="-16.58%" id="AE"><stop stop-color="#f9a342" offset="0%"/><stop stop-color="#fcd223" stop-opacity="0" offset="100%"/></linearGradient><linearGradient x1="47.9410714%" y1="123.971875%" x2="47.9410714%" y2="-47.284375%" id="AF"><stop stop-color="#f9a342" offset="0%"/><stop stop-color="#fcd223" stop-opacity="0" offset="100%"/></linearGradient><linearGradient x1="50.2016473%" y1="-67.23%" x2="50.2016473%" y2="146.92%" id="AG"><stop stop-color="#f9a342" offset="0%"/><stop stop-color="#fcd223" offset="100%"/></linearGradient><linearGradient x1="54.104%" y1="-26.9%" x2="54.104%" y2="534.018182%" id="AH"><stop stop-color="#f9a342" offset="0%"/><stop stop-color="#fcd223" stop-opacity="0" offset="100%"/></linearGradient><linearGradient x1="50.9571429%" y1="-145.846154%" x2="50.9571429%" y2="328.807692%" id="AI"><stop stop-color="#f9a342" offset="0%"/><stop stop-color="#fcd223" stop-opacity="0" offset="100%"/></linearGradient><linearGradient x1="50.1027778%" y1="-14.1297872%" x2="50.1027778%" y2="108.034043%" id="AJ"><stop stop-color="#fcd223" offset="0%"/><stop stop-color="#f9a342" offset="100%"/></linearGradient><linearGradient x1="50.134375%" y1="-1.3772627%" x2="50.134375%" y2="99.6830346%" id="AK"><stop stop-color="#f9a342" offset="0%"/><stop stop-color="#fcd223" offset="100%"/></linearGradient><linearGradient x1="49.6135417%" y1="-19.315625%" x2="49.6135417%" y2="149.4875%" id="AL"><stop stop-color="#f9a342" offset="0%"/><stop stop-color="#fcd223" stop-opacity="0" offset="100%"/></linearGradient><linearGradient x1="50.1027778%" y1="100.932184%" x2="50.1027778%" y2="0.824137931%" id="AM"><stop stop-color="#f9a342" offset="0%"/><stop stop-color="#faa442" offset="0%"/><stop stop-color="#fcd223" offset="100%"/></linearGradient><linearGradient x1="49.8814815%" y1="101.70119%" x2="49.8814815%" y2="29.7059524%" id="AN"><stop stop-color="#f9a342" offset="0%"/><stop stop-color="#fcd223" stop-opacity="0" offset="100%"/></linearGradient><linearGradient x1="50.3733333%" y1="158.265%" x2="50.3733333%" y2="-15.1175%" id="AO"><stop stop-color="#f9a342" offset="0%"/><stop stop-color="#fcd223" stop-opacity="0" offset="100%"/></linearGradient><linearGradient x1="48.3151786%" y1="121.427692%" x2="48.3151786%" y2="-47.1938462%" id="AP"><stop stop-color="#f9a342" offset="0%"/><stop stop-color="#fcd223" stop-opacity="0" offset="100%"/></linearGradient><linearGradient x1="49.648886%" y1="-68.058%" x2="49.648886%" y2="146.09%" id="AQ"><stop stop-color="#f9a342" offset="0%"/><stop stop-color="#fcd223" offset="100%"/></linearGradient><linearGradient x1="51.78%" y1="-30.6636364%" x2="51.78%" y2="530.272727%" id="AR"><stop stop-color="#f9a342" offset="0%"/><stop stop-color="#fcd223" stop-opacity="0" offset="100%"/></linearGradient><linearGradient x1="49.2971429%" y1="-141.330769%" x2="49.2971429%" y2="333.3%" id="AS"><stop stop-color="#f9a342" offset="0%"/><stop stop-color="#fcd223" stop-opacity="0" offset="100%"/></linearGradient><linearGradient x1="50.090873%" y1="-13.656383%" x2="50.090873%" y2="108.507447%" id="AT"><stop stop-color="#fcd223" offset="0%"/><stop stop-color="#f9a342" offset="100%"/></linearGradient><linearGradient x1="50.11875%" y1="-0.698275862%" x2="50.11875%" y2="100.45%" id="AU"><stop stop-color="#f9a342" offset="0%"/><stop stop-color="#fcd223" offset="100%"/></linearGradient><linearGradient x1="49.5979167%" y1="-17.925%" x2="49.5979167%" y2="150.878125%" id="AV"><stop stop-color="#f9a342" offset="0%"/><stop stop-color="#fcd223" stop-opacity="0" offset="100%"/></linearGradient><linearGradient x1="50.090873%" y1="100.294253%" x2="50.090873%" y2="0.186206897%" id="AW"><stop stop-color="#f9a342" offset="0%"/><stop stop-color="#faa442" offset="0%"/><stop stop-color="#fcd223" offset="100%"/></linearGradient><linearGradient x1="49.8444444%" y1="102.230952%" x2="49.8444444%" y2="30.2357143%" id="AX"><stop stop-color="#f9a342" offset="0%"/><stop stop-color="#fcd223" stop-opacity="0" offset="100%"/></linearGradient><linearGradient x1="50.1733333%" y1="156.8775%" x2="50.1733333%" y2="-16.505%" id="AY"><stop stop-color="#f9a342" offset="0%"/><stop stop-color="#fcd223" stop-opacity="0" offset="100%"/></linearGradient><linearGradient x1="48.2883929%" y1="124.020312%" x2="48.2883929%" y2="-47.2359375%" id="AZ"><stop stop-color="#f9a342" offset="0%"/><stop stop-color="#fcd223" stop-opacity="0" offset="100%"/></linearGradient><linearGradient x1="49.6203441%" y1="-67.168%" x2="49.6203441%" y2="146.98%" id="Aa"><stop stop-color="#f9a342" offset="0%"/><stop stop-color="#fcd223" offset="100%"/></linearGradient><linearGradient x1="51.66%" y1="-26.6181818%" x2="51.66%" y2="534.3%" id="Ab"><stop stop-color="#f9a342" offset="0%"/><stop stop-color="#fcd223" stop-opacity="0" offset="100%"/></linearGradient><linearGradient x1="49.2114286%" y1="-145.6%" x2="49.2114286%" y2="329.030769%" id="Ac"><stop stop-color="#f9a342" offset="0%"/><stop stop-color="#fcd223" stop-opacity="0" offset="100%"/></linearGradient><linearGradient x1="49.9944444%" y1="-14.0968085%" x2="49.9944444%" y2="108.067021%" id="Ad"><stop stop-color="#fcd223" offset="0%"/><stop stop-color="#f9a342" offset="100%"/></linearGradient><linearGradient x1="49.9921875%" y1="-1.32558355%" x2="49.9921875%" y2="99.7364363%" id="Ae"><stop stop-color="#f9a342" offset="0%"/><stop stop-color="#fcd223" offset="100%"/></linearGradient><linearGradient x1="49.4713542%" y1="-19.21875%" x2="49.4713542%" y2="149.584375%" id="Af"><stop stop-color="#f9a342" offset="0%"/><stop stop-color="#fcd223" stop-opacity="0" offset="100%"/></linearGradient><linearGradient x1="49.9944444%" y1="100.967816%" x2="49.9944444%" y2="0.859770115%" id="Ag"><stop stop-color="#f9a342" offset="0%"/><stop stop-color="#faa442" offset="0%"/><stop stop-color="#fcd223" offset="100%"/></linearGradient><linearGradient x1="50.7790123%" y1="101.736905%" x2="50.7790123%" y2="29.7428571%" id="Ah"><stop stop-color="#f9a342" offset="0%"/><stop stop-color="#fcd223" stop-opacity="0" offset="100%"/></linearGradient><linearGradient x1="48.5533333%" y1="158.34%" x2="48.5533333%" y2="-15.04%" id="Ai"><stop stop-color="#f9a342" offset="0%"/><stop stop-color="#fcd223" stop-opacity="0" offset="100%"/></linearGradient><linearGradient x1="48.0984333%" y1="123.371875%" x2="48.0984333%" y2="-47.884375%" id="Aj"><stop stop-color="#f9a342" offset="0%"/><stop stop-color="#fcd223" stop-opacity="0" offset="100%"/></linearGradient><linearGradient x1="49.3891547%" y1="-67.996%" x2="49.3891547%" y2="146.15%" id="Ak"><stop stop-color="#f9a342" offset="0%"/><stop stop-color="#fcd223" offset="100%"/></linearGradient><linearGradient x1="54.688%" y1="-30.3909091%" x2="54.688%" y2="530.554545%" id="Al"><stop stop-color="#f9a342" offset="0%"/><stop stop-color="#fcd223" stop-opacity="0" offset="100%"/></linearGradient><linearGradient x1="48.5171429%" y1="-141.1%" x2="48.5171429%" y2="333.553846%" id="Am"><stop stop-color="#f9a342" offset="0%"/><stop stop-color="#fcd223" stop-opacity="0" offset="100%"/></linearGradient><linearGradient x1="49.8107143%" y1="-14.1787234%" x2="49.8107143%" y2="107.985106%" id="An"><stop stop-color="#fcd223" offset="0%"/><stop stop-color="#f9a342" offset="100%"/></linearGradient><linearGradient x1="49.7510417%" y1="-1.45203356%" x2="49.7510417%" y2="99.6020948%" id="Ao"><stop stop-color="#f9a342" offset="0%"/><stop stop-color="#fcd223" offset="100%"/></linearGradient><linearGradient x1="49.2302083%" y1="-19.459375%" x2="49.2302083%" y2="149.34375%" id="Ap"><stop stop-color="#f9a342" offset="0%"/><stop stop-color="#fcd223" stop-opacity="0" offset="100%"/></linearGradient><linearGradient x1="48.5508929%" y1="123.251562%" x2="48.5508929%" y2="-48.0046875%" id="Aq"><stop stop-color="#f9a342" offset="0%"/><stop stop-color="#fcd223" stop-opacity="0" offset="100%"/></linearGradient><linearGradient x1="49.9000547%" y1="-68.15%" x2="49.9000547%" y2="145.996%" id="Ar"><stop stop-color="#f9a342" offset="0%"/><stop stop-color="#fcd223" offset="100%"/></linearGradient><linearGradient x1="52.836%" y1="-31.0909091%" x2="52.836%" y2="529.854545%" id="As"><stop stop-color="#f9a342" offset="0%"/><stop stop-color="#fcd223" stop-opacity="0" offset="100%"/></linearGradient><linearGradient x1="-0.816216216%" y1="51.2181818%" x2="100.286486%" y2="51.2181818%" id="At"><stop stop-color="#e9e8e9" offset=".070271%"/><stop stop-color="#fff" offset="100%"/></linearGradient><linearGradient x1="0.203846154%" y1="50.4078431%" x2="100.338462%" y2="50.4078431%" id="Au"><stop stop-color="#e9e8e9" offset=".070271%"/><stop stop-color="#fff" offset="100%"/></linearGradient><linearGradient x1="49.2530612%" y1="99.9295455%" x2="49.2530612%" y2="-0.202272727%" id="Av"><stop stop-color="#e9e8e9" offset=".070271%"/><stop stop-color="#fff" offset="100%"/></linearGradient><linearGradient x1="48.8294618%" y1="100.549153%" x2="48.8294618%" y2="1.68135593%" id="Aw"><stop stop-color="#e9e8e9" offset=".070271%"/><stop stop-color="#fff" offset="100%"/></linearGradient><linearGradient x1="49.8972222%" y1="-2.8218254%" x2="49.8972222%" y2="77.1170635%" id="Ax"><stop stop-color="#fcd223" offset="0%"/><stop stop-color="#f9a342" offset="100%"/></linearGradient><linearGradient x1="50.3905263%" y1="-14.89%" x2="50.3905263%" y2="66.5536842%" id="Ay"><stop stop-color="#f9a342" offset="0%"/><stop stop-color="#fcd223" offset="100%"/></linearGradient><linearGradient x1="49.6530864%" y1="-15.8488889%" x2="49.6530864%" y2="116.491111%" id="Az"><stop stop-color="#fcd223" offset="0%"/><stop stop-color="#f9a342" offset="100%"/></linearGradient><linearGradient x1="50.27375%" y1="-15.4124088%" x2="50.27375%" y2="114.99562%" id="BA"><stop stop-color="#f9a342" offset="30.81%"/><stop stop-color="#fcd223" offset="100%"/></linearGradient><linearGradient x1="52.34%" y1="-17.20625%" x2="52.34%" y2="114.253125%" id="BB"><stop stop-color="#fcd223" offset="0%"/><stop stop-color="#f9a342" offset="100%"/></linearGradient><linearGradient x1="50.3905263%" y1="-14.9616162%" x2="50.3905263%" y2="66.7919192%" id="BC"><stop stop-color="#f9a342" offset="0%"/><stop stop-color="#fcd223" stop-opacity="0" offset="100%"/></linearGradient><path id="BD" d="M58.752 91.275c-1.144 1-2.86 1-3.86-.143s-1-2.86.143-3.86 2.86-1 3.86.143 1 2.86-.143 3.86z"/><path id="BE" d="M148.27 151.907c0 2.288-6.15 4.147-13.728 4.147s-13.728-1.86-13.728-4.147 6.15-4.147 13.728-4.147c7.58-.143 13.728 1.716 13.728 4.147z"/><path id="BF" d="M134.542 148.475c7.15 0 12.87 1.716 13.728 3.718 0-.143.143-.286.143-.43 0-2.288-6.15-4.147-13.728-4.147s-13.728 1.86-13.728 4.147c0 .143 0 .286.143.43.43-2.002 6.292-3.718 13.442-3.718z"/><path id="BG" d="M142.264 152.765v-.286c-.143-.572-.858-1.144-1.716-1.43v-1c-.143-1.144-2.43-1.716-4.576-1.716h-.858v-.286c0-.143-.143-.43-.43-.43h-1.86c-.143 0-.286.143-.43.286v.286h-.572c-2.288 0-4.72.572-4.862 1.716v1.287c0 .143 0 .43.286.715.143.143.286.286.572.43h-1.144v1.43c0 .143 0 .43.286.715.572.715 2.145 1.144 3.86 1.144h1.573v.715c0 .143.143.43.43.43h2.288c.143 0 .43-.143.43-.43v-.715h2.145c2.145 0 4.72-.572 5.005-1.716v-.143c-.43.143-.43-.143-.43-1zm-11.44.715h1.86l.143-1.86h-1c-2.574 0-4.433-.715-4.3-1.573s2.145-1.43 4.576-1.43h.858v-.715h1.86v.715h1.144c2.145 0 4.147.572 4.147 1.287h0-1.86c0-.143-.143-.286-.43-.43-.43-.143-1.144-.286-1.86-.286h-1.144v1.573h2.288c2.43 0 4.72.715 4.862 1.573.143 1-1.86 1.716-4.576 1.716h-2.43v1h-2.288v-1h-2.002c-2.145 0-3.86-.715-3.718-1.43h2.145c0 .572.715.858 1.716.858z"/><path id="BH" d="M126.963 152.765c-.143.715 1.573 1.43 3.718 1.43h2.002v1h2.288v-1h2.43c2.717 0 4.72-.858 4.576-1.716s-2.288-1.573-4.862-1.573h-2.288v-1.573h1.144c.715 0 1.43.143 1.86.286.286.143.43.286.43.43h2.002c-.143-.715-2.002-1.287-4.147-1.287h-1.144v-.715h-1.86v.715h-.858c-2.43 0-4.433.572-4.576 1.43s1.86 1.573 4.3 1.573h1l-.143 1.86h-1.86c-1 0-1.716-.286-1.716-.715h-2.288v-.143zm11.726-1c.715.143 1.144.43 1.287.715 0 .572-1.144 1-2.574 1h-2.43v-1.86h2.288c.43 0 1 .143 1.43.143zm-9.295-1.573c0-.286.286-.43.715-.572.286-.143.43-.143.858-.143h2.002v1.573h-1c-1.573-.143-2.574-.43-2.574-.858z"/><path id="BI" d="M132.826 150.906v-1.573h-2.002c-.286 0-.572.143-.858.143-.43.143-.715.286-.715.572 0 .43 1 .858 2.43.858h1.144z"/><path id="BJ" d="M151.845 144.614c0 2.288-6.15 4.147-13.728 4.147s-13.728-1.86-13.728-4.147 6.15-4.147 13.728-4.147 13.728 1.86 13.728 4.147z"/><path id="BK" d="M138.117 141.325c7.15 0 12.87 1.716 13.728 3.718 0-.143.143-.286.143-.43 0-2.288-6.15-4.147-13.728-4.147s-13.728 1.86-13.728 4.147c0 .143 0 .286.143.43.43-2.145 6.292-3.718 13.442-3.718z"/><path id="BL" d="M120.1 150.62c0 3.718 8.15 6.72 18.018 6.72 10 0 18.018-3.003 18.018-6.72v-5.72c0 3.718-8.15 6.72-18.018 6.72-10 0-18.018-3.003-18.018-6.72v5.72z"/><path id="BM" d="M131.54 151.192c-6.72-1-11.583-3.432-11.583-6.292v5.72c0 2.86 4.862 5.29 11.583 6.292v-5.72z"/><path id="BN" d="M145.982 145.472v-.286c-.143-.572-.858-1.144-1.716-1.43v-1c-.143-1.144-2.43-1.716-4.576-1.716h-.858v-.286c0-.143-.143-.43-.43-.43h-1.86c-.143 0-.286.143-.43.286v.286h-.572c-2.288 0-4.72.572-4.862 1.716v1.287c0 .143 0 .43.286.715.143.143.286.286.572.43h-1.144v1.43c0 .143 0 .43.286.715.572.715 2.145 1.144 3.86 1.144h1.573v.715c0 .143.143.43.43.43h2.288c.143 0 .43-.143.43-.43v-.715h2.145c2.145 0 4.72-.572 5.005-1.716v-.143c-.43.143-.43 0-.43-1zm-11.583.858h1.86l.143-1.86h-1c-2.574 0-4.433-.715-4.3-1.573s2.145-1.43 4.576-1.43h.858v-.715h1.86v.715h1.144c2.145 0 4.147.572 4.147 1.287h0-2.002c0-.143-.143-.286-.43-.43-.43-.143-1.144-.286-1.86-.286h-1.144v1.573h2.288c2.43 0 4.72.715 4.862 1.573.143 1-1.86 1.716-4.576 1.716h-2.43v1h-2.288v-1h-2.002c-2.145 0-3.86-.715-3.718-1.43h2.145c.143.43.858.858 1.86.858z"/><path id="BO" d="M130.538 145.615c-.143.715 1.573 1.43 3.718 1.43h2.002v1h2.288v-1h2.43c2.717 0 4.72-.858 4.576-1.716s-2.288-1.573-4.862-1.573h-2.288v-1.573h1.144c.715 0 1.43.143 1.86.286.286.143.43.286.43.43h2.002c-.143-.715-2.002-1.287-4.147-1.287h-1.144v-.715h-1.86v.715h-.858c-2.43 0-4.433.572-4.576 1.43s1.86 1.573 4.3 1.573h1l-.143 1.86h-1.86c-1 0-1.716-.286-1.716-.715h-2.288v-.143zm11.726-1c.715.143 1.144.43 1.287.715 0 .572-1.144 1-2.574 1h-2.43v-1.86h2.288c.43 0 1 0 1.43.143zm-9.295-1.716c0-.286.286-.43.715-.572.286-.143.43-.143.858-.143h2.002v1.573H135.4c-1.287 0-2.43-.43-2.43-.858z"/><path id="BP" d="M136.4 143.756v-1.573H134.4c-.286 0-.572.143-.858.143-.43.143-.715.286-.715.572 0 .43 1 .858 2.43.858h1.144z"/><path id="BQ" d="M138.403 146.33h2.43c1.43 0 2.574-.43 2.574-1 0-.286-.572-.572-1.287-.715-.43-.143-.858-.143-1.43-.143h-2.288v1.86z"/><path id="BR" d="M140.834 138.75v-.286c-.143-.572-.858-1.144-1.716-1.43v-1c-.143-1.144-2.43-1.716-4.576-1.716h-.858v-.286c0-.143-.143-.43-.43-.43h-1.86c-.143 0-.286.143-.43.286v.286h-.572c-2.288 0-4.72.572-4.862 1.716v1.287c0 .143 0 .43.286.715.143.143.286.286.572.43h-1.144v1.43c0 .143 0 .43.286.715.572.715 2.145 1.144 3.86 1.144h1.573v.715c0 .143.143.43.43.43h2.288c.143 0 .43-.143.43-.43v-.715h2.145c2.145 0 4.72-.572 5.005-1.716v-.143c-.43.143-.43-.143-.43-1zm-11.44.715h1.86l.143-1.86h-1c-2.574 0-4.433-.715-4.3-1.573s2.145-1.43 4.576-1.43h.858v-.715h1.86v.715h1.144c2.145 0 4.147.572 4.147 1.287h0-1.86c0-.143-.143-.286-.43-.43-.43-.143-1.144-.286-1.86-.286h-1.144v1.573h2.288c2.43 0 4.72.715 4.862 1.573.143 1-1.86 1.716-4.576 1.716h-2.43v1h-2.288v-1h-2.002c-2.145 0-3.86-.715-3.718-1.43h2.145c-.143.572.715.858 1.716.858z"/><path id="BS" d="M142.98 131.458v-.286c-.143-.572-.858-1.144-1.716-1.43v-1c-.143-1.144-2.43-1.716-4.576-1.716h-.858v-.286c0-.143-.143-.43-.43-.43h-1.86c-.143 0-.286.143-.43.286v.286h-.572c-2.288 0-4.72.572-4.862 1.716v1.287c0 .143 0 .43.286.715.143.143.286.286.572.43h-1.144v1.43c0 .143 0 .43.286.715.572.715 2.145 1.144 3.86 1.144h1.573v.715c0 .143.143.43.43.43h2.288c.143 0 .43-.143.43-.43v-.715h2.145c2.145 0 4.72-.572 5.005-1.716v-.143c-.43.143-.43 0-.43-1zm-11.44.858h1.86l.143-1.86h-1c-2.574 0-4.433-.715-4.3-1.573s2.145-1.43 4.576-1.43h.858v-.715h1.86v.715h1.144c2.145 0 4.147.572 4.147 1.287h0-2.002c0-.143-.143-.286-.43-.43-.43-.143-1.144-.286-1.86-.286H135.4v1.573h2.288c2.43 0 4.72.715 4.862 1.573.143 1-1.86 1.716-4.576 1.716h-2.43v1h-2.288v-1h-2.002c-2.145 0-3.86-.715-3.718-1.43h2.145c.143.43.858.858 1.86.858z"/><path id="BT" d="M127.678 131.6c-.143.715 1.573 1.43 3.718 1.43h2.002v1h2.288v-1h2.43c2.717 0 4.72-.858 4.576-1.716s-2.288-1.573-4.862-1.573h-2.288v-1.573h1.144c.715 0 1.43.143 1.86.286.286.143.43.286.43.43h2.002c-.143-.715-2.002-1.287-4.147-1.287h-1.144v-.715h-1.86v.715h-.858c-2.43 0-4.433.572-4.576 1.43s1.86 1.573 4.3 1.573h1l-.143 1.86h-1.86c-1 0-1.716-.286-1.716-.715h-2.288v-.143zm11.726-1c.715.143 1.144.43 1.287.715 0 .572-1.144 1-2.574 1h-2.43v-1.86h2.288c.43 0 1 0 1.43.143zm-9.295-1.716c0-.286.286-.43.715-.572.286-.143.43-.143.858-.143h2.002v1.573h-1.144c-1.43 0-2.43-.43-2.43-.858z"/><path id="BU" d="M101.652 153.48v-.286c-.143-.572-.858-1.144-1.716-1.43v-1c-.143-1.144-2.43-1.716-4.576-1.716h-.858v-.286c0-.143-.143-.43-.43-.43h-1.86c-.143 0-.286.143-.43.286v.286h-.572c-2.288 0-4.72.572-4.862 1.716v1.287c0 .143 0 .43.286.715.143.143.286.286.572.43h-1.144v1.43c0 .143 0 .43.286.715.572.715 2.145 1.144 3.86 1.144h1.573v.715c0 .143.143.43.43.43h2.288c.143 0 .43-.143.43-.43v-.715h2.145c2.145 0 4.72-.572 5.005-1.716v-.143c-.43.286-.43 0-.43-1zm-11.583.858h1.86l.143-1.86h-1c-2.574 0-4.433-.715-4.3-1.573s2.145-1.43 4.576-1.43h.858v-.715h1.86v.715h1.144c2.145 0 4.147.572 4.147 1.287h0-2.002c0-.143-.143-.286-.43-.43-.43-.143-1.144-.286-1.86-.286H93.93v1.573h2.288c2.43 0 4.72.715 4.862 1.573.143 1-1.86 1.716-4.576 1.716h-2.43v1h-2.288v-1h-2.002c-2.145 0-3.86-.715-3.718-1.43H88.2c.143.572.858.858 1.86.858z"/><path id="BV" d="M86.35 153.623c-.143.715 1.573 1.43 3.718 1.43h2.002v1h2.288v-1h2.43c2.717 0 4.72-.858 4.576-1.716s-2.288-1.573-4.862-1.573h-2.288v-1.573h1.144c.715 0 1.43.143 1.86.286.286.143.43.286.43.43h2.002c-.143-.715-2.002-1.287-4.147-1.287H94.36v-.715H92.5v.715h-.858c-2.43 0-4.433.572-4.576 1.43s1.86 1.573 4.3 1.573h1l-.143 1.86h-1.86c-1 0-1.716-.286-1.716-.715H86.35v-.143zm11.583-1c.715.143 1.144.43 1.287.715 0 .572-1.144 1-2.574 1h-2.43v-1.86h2.288c.572 0 1 0 1.43.143zm-9.152-1.716c0-.286.286-.43.715-.572.286-.143.43-.143.858-.143h2.002v1.573H91.07c-1.287 0-2.43-.43-2.288-.858z"/><path id="BW" d="M92.07 150.334v-1.573H90.07c-.286 0-.572.143-.858.143-.43.143-.715.286-.715.572 0 .43 1 .858 2.43.858h1.144z"/><path id="BX" d="M100.222 145.615v-.286c-.143-.572-.858-1.144-1.716-1.43v-1c-.143-1.144-2.43-1.716-4.576-1.716h-.858v-.286c0-.143-.143-.43-.43-.43h-1.86c-.143 0-.286.143-.43.286v.286h-.572c-2.288 0-4.72.572-4.862 1.716v1.287c0 .143 0 .43.286.715.143.143.286.286.572.43h-1.144v1.43c0 .143 0 .43.286.715.572.715 2.145 1.144 3.86 1.144h1.573v.715c0 .143.143.43.43.43h2.288c.143 0 .43-.143.43-.43v-.715h2.145c2.145 0 4.72-.572 5.005-1.716v-.143c-.43.143-.43-.143-.43-1zm-11.583.715h1.86l.143-1.86h-1c-2.574 0-4.433-.715-4.3-1.573s2.145-1.43 4.576-1.43h.858v-.715h1.86v.715h1.144c2.145 0 4.147.572 4.147 1.287h0-2.002c0-.143-.143-.286-.43-.43-.43-.143-1.144-.286-1.86-.286H92.5v1.573h2.288c2.43 0 4.72.715 4.862 1.573.143 1-1.86 1.716-4.576 1.716h-2.43v1h-2.288v-1h-2.002c-2.145 0-3.86-.715-3.718-1.43h2.145c.143.572.858.858 1.86.858z"/><path id="BY" d="M84.778 145.615c-.143.715 1.573 1.43 3.718 1.43h2.002v1h2.288v-1h2.43c2.717 0 4.72-.858 4.576-1.716s-2.288-1.573-4.862-1.573h-2.288v-1.573h1.144c.715 0 1.43.143 1.86.286.286.143.43.286.43.43h2.002c-.143-.715-2.002-1.287-4.147-1.287h-1.144v-.715h-1.86v.715h-.858c-2.43 0-4.433.572-4.576 1.43s1.86 1.573 4.3 1.573h1l-.143 1.86h-1.86c-1 0-1.716-.286-1.716-.715h-2.288v-.143zm11.726-1c.715.143 1.144.43 1.287.715 0 .572-1.144 1-2.574 1h-2.43v-1.86h2.288c.43 0 1 .143 1.43.143zm-9.152-1.573c0-.286.286-.43.715-.572.286-.143.43-.143.858-.143h2.002v1.573H89.64c-1.287-.143-2.43-.43-2.288-.858z"/><path id="BZ" d="M90.64 143.756v-1.573H88.64c-.286 0-.572.143-.858.143-.43.143-.715.286-.715.572 0 .43 1 .858 2.43.858h1.144z"/><path id="Ba" d="M99.507 137.75v-.286c-.143-.572-.858-1.144-1.716-1.43v-1c-.143-1.144-2.43-1.716-4.576-1.716h-.858v-.286c0-.143-.143-.43-.43-.43h-1.86c-.143 0-.286.143-.43.286v.286h-.572c-2.288 0-4.72.572-4.862 1.716v1.287c0 .143 0 .43.286.715.143.143.286.286.572.43H83.92v1.43c0 .143 0 .43.286.715.572.715 2.145 1.144 3.86 1.144h1.573v.715c0 .143.143.43.43.43h2.288c.143 0 .43-.143.43-.43v-.715h2.145c2.145 0 4.72-.572 5.005-1.716v-.143c-.43.143-.43 0-.43-1zm-11.583.858h1.86l.143-1.86h-1c-2.574 0-4.433-.715-4.3-1.573s2.145-1.43 4.576-1.43h.858v-.715h1.86v.715h1.144c2.145 0 4.147.572 4.147 1.287h0-1.86c0-.143-.143-.286-.43-.43-.43-.143-1.144-.286-1.86-.286h-1.144v1.573h2.288c2.43 0 4.72.715 4.862 1.573.143 1-1.86 1.716-4.576 1.716h-2.43v1h-2.288v-1H87.78c-2.145 0-3.86-.715-3.718-1.43h2.145c0 .43.715.858 1.716.858z"/><path id="Bb" d="M84.063 137.893c-.143.715 1.573 1.43 3.718 1.43h2.002v1h2.288v-1h2.43c2.717 0 4.72-.858 4.576-1.716s-2.288-1.573-4.862-1.573h-2.288v-1.573h1.144c.715 0 1.43.143 1.86.286.286.143.43.286.43.43h2.002c-.143-.715-2.002-1.287-4.147-1.287H92.07v-.715h-1.86v.715h-.858c-2.43 0-4.433.572-4.576 1.43s1.86 1.573 4.3 1.573h1l-.143 1.86h-1.86c-1 0-1.716-.286-1.716-.715h-2.288v-.143zm11.726-1c.715.143 1.144.43 1.287.715 0 .572-1.144 1-2.574 1h-2.43v-1.86h2.288c.43 0 1 0 1.43.143zm-9.295-1.716c0-.286.286-.43.715-.572.286-.143.43-.143.858-.143h2.002v1.573h-1c-1.43 0-2.574-.43-2.574-.858z"/><path id="Bc" d="M108.087 129.742c0 2.288-6.15 4.147-13.728 4.147s-13.728-1.86-13.728-4.147 6.15-4.147 13.728-4.147c7.58-.143 13.728 1.86 13.728 4.147z"/><path id="Bd" d="M94.36 126.453c7.15 0 12.87 1.716 13.728 3.718 0-.143.143-.286.143-.43 0-2.288-6.15-4.147-13.728-4.147s-13.728 1.86-13.728 4.147c0 .143 0 .286.143.43.572-2.145 6.435-3.718 13.442-3.718z"/><path id="Be" d="M102.224 130.6v-.286c-.143-.572-.858-1.144-1.716-1.43v-1c-.143-1.144-2.43-1.716-4.576-1.716h-.858v-.286c0-.143-.143-.43-.43-.43h-1.86c-.143 0-.286.143-.43.286v.286h-.572c-2.288 0-4.72.572-4.862 1.716v1.43c0 .143 0 .43.286.715.143.143.286.286.572.43h-1.144v1.43c0 .143 0 .43.286.715.572.715 2.145 1.144 3.86 1.144h1.573v.715c0 .143.143.43.43.43h2.288c.143 0 .43-.143.43-.43v-.715h2.145c2.145 0 4.72-.572 5.005-1.716v-.143c-.43 0-.43-.286-.43-1.144zm-11.44.715h1.86l.143-1.86h-1c-2.574 0-4.433-.715-4.3-1.573s2.145-1.43 4.576-1.43h.858v-.715h1.86v.715h1.144c2.145 0 4.147.572 4.147 1.287h0-2.002c0-.143-.143-.286-.43-.43-.43-.143-1.144-.286-1.86-.286h-1.144v1.573h2.288c2.43 0 4.72.715 4.862 1.573.143 1-1.86 1.716-4.576 1.716h-2.43v1H92.5v-1h-2.002c-2.145 0-3.86-.715-3.718-1.43h2.145c0 .572.858.858 1.86.858z"/><path id="Bf" d="M86.923 130.743c-.143.715 1.573 1.43 3.718 1.43h2.002v1h2.288v-1h2.43c2.717 0 4.72-.858 4.576-1.716s-2.288-1.573-4.862-1.573h-2.288v-1.573h1.144c.715 0 1.43.143 1.86.286.286.143.43.286.43.43h2.002c-.143-.715-2.002-1.287-4.147-1.287H94.93v-.715h-1.86v.715h-.858c-2.43 0-4.433.572-4.576 1.43s1.86 1.573 4.3 1.573h1l-.143 1.86h-1.86c-1 0-1.716-.286-1.716-.715h-2.288v-.143zm11.583-1.144c.715.143 1.144.43 1.287.715 0 .572-1.144 1-2.574 1h-2.43v-1.86h2.288c.572 0 1 .143 1.43.143zm-9.152-1.573c0-.286.286-.43.715-.572.286-.143.43-.143.858-.143h2.002v1.573h-1c-1.573 0-2.717-.43-2.574-.858z"/><path id="Bg" d="M97.362 119.59c7.15 0 12.87 1.716 13.728 3.718 0-.143.143-.286.143-.43 0-2.288-6.15-4.147-13.728-4.147s-13.728 1.86-13.728 4.147c0 .143 0 .286.143.43.572-2.002 6.435-3.718 13.442-3.718z"/><path id="Bh" d="M105.227 123.736v-.286c-.143-.572-.858-1.144-1.716-1.43v-1c-.143-1.144-2.43-1.716-4.576-1.716h-.858v-.286c0-.143-.143-.43-.43-.43h-1.86c-.143 0-.286.143-.43.286v.286h-.572c-2.288 0-4.72.572-4.862 1.716v1.287c0 .143 0 .43.286.715.143.143.286.286.572.43H89.64v1.43c0 .143 0 .43.286.715.572.715 2.145 1.144 3.86 1.144h1.573v.715c0 .143.143.43.43.43h2.288c.143 0 .43-.143.43-.43v-.715h2.145c2.145 0 4.72-.572 5.005-1.716v-.143c-.43.286-.43 0-.43-1zm-11.44.858h1.86l.143-1.86h-1c-2.574 0-4.433-.715-4.3-1.573s2.145-1.43 4.576-1.43h.858v-.715h1.86v.715h1.144c2.145 0 4.147.572 4.147 1.287h0-2.002c0-.143-.143-.286-.43-.43-.43-.143-1.144-.286-1.86-.286h-1.144v1.573h2.288c2.43 0 4.72.715 4.862 1.573.143 1-1.86 1.716-4.576 1.716h-2.43v1h-2.288v-1H93.5c-2.145 0-3.86-.715-3.718-1.43h2.145c0 .572.858.858 1.86.858z"/><path id="Bi" d="M89.926 123.88c-.143.715 1.573 1.43 3.718 1.43h2.002v1h2.288v-1h2.43c2.717 0 4.72-.858 4.576-1.716-.286-.858-2.43-1.573-4.862-1.573H97.79v-1.573h1.144c.715 0 1.43.143 1.86.286.286.143.43.286.43.43h2.002c-.143-.715-2.002-1.287-4.147-1.287h-1.144v-.715h-1.86v.715h-.858c-2.43 0-4.433.572-4.576 1.43s1.86 1.573 4.3 1.573h1l-.143 1.86h-1.86c-1 0-1.716-.286-1.716-.715h-2.288v-.143zm11.583-1c.715.143 1.144.43 1.287.715 0 .572-1.144 1-2.574 1h-2.43v-1.86h2.288c.572 0 1 0 1.43.143zm-9.152-1.716c0-.286.286-.43.715-.572.286-.143.43-.143.858-.143h2.002v1.573h-1c-1.573 0-2.717-.43-2.574-.858z"/><path id="Bj" d="M97.79 124.594h2.43c1.43 0 2.574-.43 2.574-1 0-.286-.572-.572-1.287-.715-.43-.143-.858-.143-1.43-.143H97.79v1.86z"/><path id="Bk" d="M120.957 153.623v-.286c-.143-.572-.858-1.144-1.716-1.43v-1c-.143-1.144-2.43-1.716-4.576-1.716h-.858v-.286c0-.143-.143-.43-.43-.43h-1.86c-.143 0-.286.143-.43.286v.286h-.572c-2.288 0-4.72.572-4.862 1.716v1.287c0 .143 0 .43.286.715.143.143.286.286.572.43h-1.144v1.43c0 .143 0 .43.286.715.572.715 2.145 1.144 3.86 1.144h1.573v.715c0 .143.143.43.43.43h2.288c.143 0 .43-.143.43-.43v-.715h2.145c2.145 0 4.72-.572 5.005-1.716v-.143c-.43.143-.43-.143-.43-1zm-11.44.715h1.86l.143-1.86h-1c-2.574 0-4.433-.715-4.3-1.573s2.145-1.43 4.576-1.43h.858v-.715h1.86v.715h1.144c2.145 0 4.147.572 4.147 1.287h0-2.002c0-.143-.143-.286-.43-.43-.43-.143-1.144-.286-1.86-.286h-1.144v1.573h2.288c2.43 0 4.72.715 4.862 1.573.143 1-1.86 1.716-4.576 1.716h-2.43v1h-2.288v-1h-2.002c-2.145 0-3.86-.715-3.718-1.43h2.145c0 .572.858.858 1.86.858z"/><path id="Bl" d="M105.656 153.766c-.143.715 1.573 1.43 3.718 1.43h2.002v1h2.288v-1h2.43c2.717 0 4.72-.858 4.576-1.716s-2.288-1.573-4.862-1.573h-2.288v-1.573h1.144c.715 0 1.43.143 1.86.286.286.143.43.286.43.43h2.002c-.143-.715-2.002-1.287-4.147-1.287h-1.144v-.715h-1.86v.715h-.858c-2.43 0-4.433.572-4.576 1.43s1.86 1.573 4.3 1.573h1l-.143 1.86h-1.86c-1 0-1.716-.286-1.716-.715h-2.288v-.143zm11.726-1.144c.715.143 1.144.43 1.287.715 0 .572-1.144 1-2.574 1h-2.43v-1.86h2.288c.43 0 1 .143 1.43.143zm-9.295-1.573c0-.286.286-.43.715-.572.286-.143.43-.143.858-.143h2.002v1.573h-1c-1.573 0-2.574-.43-2.574-.858z"/><path id="Bm" d="M146.125 35.79h-1.144c-2.145 0-4.004-1.86-4.004-4.004v-1.144 1.144c0 2.145-1.86 4.004-4.004 4.004h-1.144 1.144c2.145 0 4.004 1.86 4.004 4.004v1.144-1.144c0-2.145 1.86-4.004 4.004-4.004h1.144z"/></defs><g fill="none" fill-rule="evenodd"><mask id="Bn" fill="#fff"><use xlink:href="#A"/></mask><use xlink:href="#A" class="F"/><g mask="url(#Bn)"><path d="M190.312 108.864l-43.758 41.04-22.308-23.738 43.615-41.04z" class="D E"/><path stroke="#8db9fc" d="M128.12 126.153l39.707-37.304 18.603 19.8-39.707 37.304z" class="G"/><g class="E"><g class="F"><path d="M150.13 115.156l2.288-3.432 1-1 8.15 8.723 1.144-1 2.145 2.145-4.72 4.433-2.145-2.145 1.287-1.287-6.15-6.435-1.716 1.573zm-10.154 11.01c-2.145 2.002-2.288 5.577-.286 7.722s5.577 2.288 7.722.286 2.288-5.577.286-7.722-5.434-2.288-7.722-.286zm2.86 4.004c.143 0 .43 0 .572-.143.572-.143 1-.286 1.287-.286s.572.143.858.43.43.572.43 1a1.54 1.54 0 0 1-.43 1l.43.43-.43.43-.43-.43c-.286.286-.715.43-1.144.43s-.715-.143-1.144-.572l.715-.715c.286.286.43.286.572.286s.43-.143.572-.286.286-.286.286-.43 0-.286-.143-.43-.286-.143-.43-.286c-.143 0-.43 0-.572.143-.572.286-.858.286-1.287.286-.286 0-.572-.143-.858-.43s-.43-.572-.43-1a1.54 1.54 0 0 1 .43-1l-.572-.572.43-.43.572.572c.286-.286.715-.286 1-.286s.715.286 1 .572l-.715.715c-.143-.143-.43-.286-.572-.286s-.286 0-.43.143-.286.286-.143.43c0 .143.143.286.143.43.143.143.286.286.43.286zM166.86 101c-2.145 2.002-2.288 5.577-.286 7.722s5.577 2.288 7.722.286 2.288-5.577.286-7.722c-2.002-2.288-5.434-2.43-7.722-.286zm2.86 3.86c.143 0 .43 0 .572-.143.572-.143 1-.286 1.287-.286s.572.143.858.43.43.572.43 1a1.54 1.54 0 0 1-.43 1l.43.43-.286.43-.43-.43c-.286.286-.715.43-1.144.43s-.715-.143-1.144-.572l.715-.715c.286.286.43.286.572.286s.43-.143.572-.286.286-.286.286-.43 0-.286-.143-.43-.286-.143-.43-.286c-.143 0-.43 0-.572.143-.572.286-.858.286-1.287.286-.286 0-.572-.143-.858-.43s-.43-.572-.43-1a1.54 1.54 0 0 1 .43-1l-.572-.572.43-.43.572.572c.286-.286.715-.286 1-.286s.715.286 1 .572l-.715.715c-.143-.143-.43-.286-.572-.286s-.286 0-.43.143-.286.286-.143.43c0 .143.143.286.143.43a.31.31 0 0 0 .286.286z"/></g><g fill="#a5d8c0"><path d="M131.682 124.45c1 1.144 1 2.86-.143 3.86s-2.86 1-3.86-.143-1-2.86.143-3.86c1-1 2.717-1 3.86.143z"/><circle cx="146.84" cy="144.614" r="2.717"/></g><g fill="#8db9fc"><path d="M169.72 88.558c1 1.144 1 2.86-.143 3.86s-2.86 1-3.86-.143-1-2.86.143-3.86 2.86-.858 3.86.143z"/><circle cx="184.878" cy="108.721" r="2.717"/></g></g><path d="M164.572 110.58c3.86 4.004 3.575 10.44-.43 14.157-4.004 3.86-10.44 3.575-14.157-.43-3.86-4.004-3.575-10.44.43-14.157s10.44-3.575 14.157.43z" stroke="#f0f7ff" class="G"/><path d="M74.34 149.905L33.298 106.3l23.738-22.45 41.04 43.758z" class="D E"/><path stroke="#8db9fc" d="M56.978 87.716l37.304 39.707-19.8 18.603-37.304-39.707z" class="G"/><g class="E"><g class="F"><path d="M68.047 109.865l3.432 2.288 1 1-8.723 8.15 1 1.144-2.145 2.145-4.433-4.72 2.145-2.145 1.287 1.287 6.435-6.15-1.573-1.716zm-11.01-10.153c-2.002-2.145-5.577-2.288-7.722-.286s-2.288 5.577-.286 7.722 5.577 2.288 7.722.286c2.145-2.145 2.288-5.577.286-7.722zm-4.004 2.717c0 .143 0 .43.143.572.143.572.286 1 .286 1.287s-.143.572-.43.858-.572.43-1 .43a1.54 1.54 0 0 1-1-.43l-.43.43-.43-.43.43-.43c-.286-.286-.43-.715-.43-1.144s.143-.715.572-1.144l.715.715c-.286.286-.286.43-.286.572s.143.43.286.572.286.286.43.286.286 0 .43-.143.143-.286.286-.43c0-.143 0-.43-.143-.572-.286-.572-.286-.858-.286-1.287 0-.286.143-.572.43-.858s.572-.43 1-.43a1.54 1.54 0 0 1 1 .43l.572-.572.43.43-.572.572c.286.286.286.715.286 1s-.286.715-.572 1l-.715-.715c.143-.143.286-.43.286-.572s0-.286-.143-.43-.286-.286-.43-.143c-.143 0-.286.143-.43.143-.143.143-.143.286-.286.43z"/><use xlink:href="#BD"/><path d="M40.59 108.435c-1.144 1-2.86 1-3.86-.143s-1-2.86.143-3.86 2.86-1 3.86.143.858 2.86-.143 3.86z"/></g><circle fill="#a5d8c0" cx="92.786" cy="127.454" r="2.717"/><use xlink:href="#BD" x="17.588" y="55.198" class="F"/></g><path d="M72.623 124.165c-4.004 3.86-10.44 3.575-14.157-.43-3.86-4.004-3.575-10.44.43-14.157 4.004-3.86 10.44-3.575 14.157.43s3.575 10.44-.43 14.157z" stroke="#f0f7ff" class="G"/><g class="E"><g class="B C"><ellipse cx="134.542" cy="152.193" rx="18.018" ry="6.721"/><use xlink:href="#BE"/><use xlink:href="#BF"/><use xlink:href="#BG"/><use xlink:href="#BH"/><use xlink:href="#BI"/></g><ellipse fill="url(#B)" cx="134.542" cy="150.763" rx="18.018" ry="6.721"/><use xlink:href="#BE" y="-1.43" fill="url(#C)"/><use xlink:href="#BF" y="-1.43" fill="url(#D)"/><use xlink:href="#BG" y="-1.43" fill="url(#E)"/><use xlink:href="#BH" y="-1.43" fill="url(#F)"/><use xlink:href="#BI" y="-1.43" fill="url(#G)"/><g class="B C"><ellipse cx="138.117" cy="144.9" rx="18.018" ry="6.721"/><use xlink:href="#BJ"/><use xlink:href="#BK"/><use xlink:href="#BL"/><use xlink:href="#BM"/><use xlink:href="#BN"/><use xlink:href="#BO"/><use xlink:href="#BP"/><use xlink:href="#BQ"/></g><ellipse fill="url(#H)" cx="138.117" cy="143.47" rx="18.018" ry="6.721"/><use xlink:href="#BJ" y="-1.43" fill="url(#I)"/><use xlink:href="#BK" y="-1.43" fill="url(#J)"/><use xlink:href="#BL" y="-1.42" fill="url(#K)"/><use xlink:href="#BM" y="-1.43" fill="url(#L)"/><use xlink:href="#BN" y="-1.43" fill="url(#M)"/><use xlink:href="#BO" y="-1.43" fill="url(#N)"/><use xlink:href="#BP" y="-1.43" fill="url(#O)"/><use xlink:href="#BQ" y="-1.43" fill="url(#P)"/><g class="B C"><ellipse cx="133.112" cy="138.179" rx="18.018" ry="6.721"/><use xlink:href="#BE" x="-1.43" y="-14.014"/><use xlink:href="#BF" x="-1.43" y="-14.015"/><use xlink:href="#BL" x="-5.15" y="-6.864"/><use xlink:href="#BM" x="-5.006" y="-6.722"/><path d="M130.824 144.9h2.145v5.72h-2.145z"/><use xlink:href="#BR"/><use xlink:href="#BH" x="-1.43" y="-14.015"/><use xlink:href="#BI" x="-1.43" y="-14.014"/><use xlink:href="#BQ" x="-5.005" y="-6.864"/></g><ellipse fill="url(#Q)" cx="133.112" cy="136.749" rx="18.018" ry="6.721"/><use xlink:href="#BE" x="-1.43" y="-15.444" fill="url(#R)"/><use xlink:href="#BF" x="-1.43" y="-15.445" fill="url(#S)"/><use xlink:href="#BL" x="-5.15" y="-8.294" fill="url(#T)"/><use xlink:href="#BM" x="-5.006" y="-8.152" fill="url(#U)"/><path fill="url(#V)" d="M130.824 143.47h2.145v5.72h-2.145z"/><use xlink:href="#BR" y="-1.43" fill="url(#W)"/><use xlink:href="#BH" x="-1.43" y="-15.445" fill="url(#X)"/><use xlink:href="#BI" x="-1.43" y="-15.444" fill="url(#Y)"/><use xlink:href="#BQ" x="-5.005" y="-8.294" fill="url(#Z)"/><g class="B C"><ellipse cx="135.257" cy="130.886" rx="18.018" ry="6.721"/><use xlink:href="#BJ" x="-2.86" y="-14.014"/><use xlink:href="#BF" x="0.715" y="-21.165"/><use xlink:href="#BL" x="-3.004" y="-14.014"/><use xlink:href="#BM" x="-2.86" y="-14.014"/><path d="M132.97 137.75h2.145v5.72h-2.145z"/><use xlink:href="#BS"/><use xlink:href="#BT"/><use xlink:href="#BI" x="0.714" y="-21.164"/><use xlink:href="#BQ" x="-2.86" y="-14.014"/></g><ellipse fill="url(#a)" cx="135.257" cy="129.456" rx="18.018" ry="6.721"/><use xlink:href="#BJ" x="-2.86" y="-15.444" fill="url(#b)"/><use xlink:href="#BF" x="0.715" y="-22.595" fill="url(#c)"/><use xlink:href="#BL" x="-3.004" y="-15.444" fill="url(#d)"/><use xlink:href="#BM" x="-2.86" y="-15.444" fill="url(#e)"/><path fill="url(#f)" d="M132.97 136.32h2.145v5.72h-2.145z"/><use xlink:href="#BS" y="-1.43" fill="url(#g)"/><use xlink:href="#BT" y="-1.43" fill="url(#h)"/><use xlink:href="#BI" x="0.714" y="-22.594" fill="url(#i)"/><use xlink:href="#BQ" x="-2.86" y="-15.444" fill="url(#j)"/><g class="B C"><ellipse cx="93.787" cy="152.908" rx="18.018" ry="6.721"/><use xlink:href="#BJ" x="-44.33" y="8.008"/><use xlink:href="#BF" x="-40.755" y="0.858"/><use xlink:href="#BU"/><use xlink:href="#BV"/></g><ellipse fill="url(#k)" cx="93.787" cy="151.478" rx="18.018" ry="6.721"/><use xlink:href="#BJ" x="-44.33" y="6.578" fill="url(#l)"/><use xlink:href="#BF" x="-40.755" y="-0.572" fill="url(#m)"/><use xlink:href="#BU" y="-1.43" fill="url(#n)"/><use xlink:href="#BV" y="-1.43" fill="url(#o)"/><use xlink:href="#BW" fill="url(#p)"/><g class="B C"><ellipse cx="92.357" cy="145.043" rx="18.018" ry="6.721"/><use xlink:href="#BE" x="-42.185" y="-7.15"/><use xlink:href="#BF" x="-42.185" y="-7.15"/><use xlink:href="#BL" x="-45.76"/><use xlink:href="#BM" x="-45.76" y="0.143"/><use xlink:href="#BX"/><use xlink:href="#BY"/><use xlink:href="#BZ"/><use xlink:href="#BQ" x="-45.76"/></g><ellipse fill="url(#q)" cx="92.357" cy="143.613" rx="18.018" ry="6.721"/><use xlink:href="#BE" x="-42.185" y="-8.58" fill="url(#r)"/><use xlink:href="#BF" x="-42.185" y="-8.58" fill="url(#s)"/><use xlink:href="#BL" x="-45.76" y="-1.42" fill="url(#t)"/><use xlink:href="#BM" x="-45.76" y="-1.287" fill="url(#u)"/><use xlink:href="#BX" y="-1.43" fill="url(#v)"/><use xlink:href="#BY" y="-1.43" fill="url(#w)"/><use xlink:href="#BZ" y="-1.43" fill="url(#x)"/><use xlink:href="#BQ" x="-45.76" y="-1.43" fill="url(#y)"/><g class="B C"><ellipse cx="91.642" cy="137.178" rx="18.018" ry="6.721"/><use xlink:href="#BJ" x="-46.475" y="-7.722"/><use xlink:href="#BF" x="-42.9" y="-14.872"/><use xlink:href="#BL" x="-46.476" y="-7.722"/><use xlink:href="#BM" x="-46.476" y="-7.722"/><path d="M89.354 144.042H91.5v5.72h-2.145z"/><use xlink:href="#Ba"/><use xlink:href="#Bb"/><use xlink:href="#BI" x="-42.9" y="-14.872"/><use xlink:href="#BQ" x="-46.475" y="-7.722"/></g><ellipse fill="url(#z)" cx="91.642" cy="135.748" rx="18.018" ry="6.721"/><use xlink:href="#BJ" x="-46.475" y="-9.152" fill="url(#AA)"/><use xlink:href="#BF" x="-42.9" y="-16.302" fill="url(#AB)"/><use xlink:href="#BL" x="-46.476" y="-9.152" fill="url(#AC)"/><use xlink:href="#BM" x="-46.476" y="-9.152" fill="url(#AD)"/><path fill="url(#AE)" d="M89.354 142.612H91.5v5.72h-2.145z"/><use xlink:href="#Ba" y="-1.43" fill="url(#AF)"/><use xlink:href="#Bb" y="-1.43" fill="url(#AG)"/><use xlink:href="#BI" x="-42.9" y="-16.302" fill="url(#AH)"/><use xlink:href="#BQ" x="-46.475" y="-9.152" fill="url(#AI)"/><g class="B C"><ellipse cx="94.359" cy="130.028" rx="18.018" ry="6.721"/><use xlink:href="#Bc"/><use xlink:href="#Bd"/><use xlink:href="#BL" x="-43.76" y="-15.015"/><use xlink:href="#BM" x="-43.616" y="-14.872"/><path d="M92.214 136.75h2.145v5.72h-2.145z"/><use xlink:href="#Be"/><use xlink:href="#Bf"/><use xlink:href="#BI" x="-40.04" y="-22.022"/><use xlink:href="#BQ" x="-43.615" y="-15.015"/></g><ellipse fill="url(#AJ)" cx="94.359" cy="128.598" rx="18.018" ry="6.721"/><use xlink:href="#Bc" y="-1.43" fill="url(#AK)"/><use xlink:href="#Bd" y="-1.43" fill="url(#AL)"/><use xlink:href="#BL" x="-43.76" y="-16.445" fill="url(#AM)"/><use xlink:href="#BM" x="-43.616" y="-16.292" fill="url(#AN)"/><path fill="url(#AO)" d="M92.214 135.32h2.145v5.72h-2.145z"/><use xlink:href="#Be" y="-1.43" fill="url(#AP)"/><use xlink:href="#Bf" y="-1.43" fill="url(#AQ)"/><use xlink:href="#BI" x="-40.04" y="-23.452" fill="url(#AR)"/><use xlink:href="#BQ" x="-43.615" y="-16.445" fill="url(#AS)"/><g class="B C"><ellipse cx="97.362" cy="123.164" rx="18.018" ry="6.721"/><use xlink:href="#BJ" x="-40.745" y="-21.736"/><use xlink:href="#Bg"/><use xlink:href="#BL" x="-40.756" y="-21.736"/><use xlink:href="#BM" x="-40.613" y="-21.736"/><path d="M95.217 130.028h2.145v5.72h-2.145z"/><use xlink:href="#Bh"/><use xlink:href="#Bi"/><use xlink:href="#BI" x="-37.036" y="-28.886"/><use xlink:href="#Bj"/></g><ellipse fill="url(#AT)" cx="97.362" cy="121.734" rx="18.018" ry="6.721"/><use xlink:href="#BJ" x="-40.745" y="-23.166" fill="url(#AU)"/><use xlink:href="#Bg" y="-1.43" fill="url(#AV)"/><use xlink:href="#BL" x="-40.756" y="-23.166" fill="url(#AW)"/><use xlink:href="#BM" x="-40.613" y="-23.166" fill="url(#AX)"/><path fill="url(#AY)" d="M95.217 128.598h2.145v5.72h-2.145z"/><use xlink:href="#Bh" y="-1.43" fill="url(#AZ)"/><use xlink:href="#Bi" y="-1.43" fill="url(#Aa)"/><use xlink:href="#BI" x="-37.036" y="-30.306" fill="url(#Ab)"/><use xlink:href="#Bj" y="-1.43" fill="url(#Ac)"/><g class="B C"><ellipse cx="93.787" cy="116.014" rx="18.018" ry="6.721"/><use xlink:href="#Bc" x="-0.572" y="-14.014"/><use xlink:href="#BK" x="-44.33" y="-28.885"/><use xlink:href="#BL" x="-44.33" y="-29.03"/><use xlink:href="#BM" x="-44.33" y="-28.886"/><path d="M91.642 122.735h2.145v5.72h-2.145zm10-6.15v-.286c-.143-.572-.858-1.144-1.716-1.43v-1c-.143-1.144-2.43-1.716-4.576-1.716h-.858v-.286c0-.143-.143-.43-.43-.43h-1.86c-.143 0-.286.143-.43.286V112H91.2c-2.288 0-4.72.572-4.862 1.716v1.287c0 .143 0 .43.286.715.143.143.286.286.572.43h-1.144v1.43c0 .143 0 .43.286.715.572.715 2.145 1.144 3.86 1.144h1.573v.715c0 .143.143.43.43.43H94.5c.143 0 .43-.143.43-.43v-.715h2.145c2.145 0 4.72-.572 5.005-1.716v-.143c-.43.143-.43-.143-.43-1zm-11.583.715h1.86l.143-1.86h-1c-2.574 0-4.433-.715-4.3-1.573s2.145-1.43 4.576-1.43h.858v-.715h1.86v.715H95.2c2.145 0 4.147.572 4.147 1.287h0-2.002c0-.143-.143-.286-.43-.43-.43-.143-1.144-.286-1.86-.286H93.93v1.573h2.288c2.43 0 4.72.715 4.862 1.573.143 1-1.86 1.716-4.576 1.716h-2.43v1h-2.288v-1h-2.002c-2.145 0-3.86-.715-3.718-1.43H88.2c.143.572.858.858 1.86.858z"/><path d="M86.35 116.73c-.143.715 1.573 1.43 3.718 1.43h2.002v1h2.288v-1h2.43c2.717 0 4.72-.858 4.576-1.716-.286-1-2.43-1.573-4.862-1.573h-2.288v-1.573h1.144c.715 0 1.43.143 1.86.286.286.143.43.286.43.43h2.002c-.143-.715-2.002-1.287-4.147-1.287H94.36V112H92.5v.715h-.858c-2.43 0-4.433.572-4.576 1.43s1.86 1.573 4.3 1.573h1l-.143 1.86h-1.86c-1 0-1.716-.286-1.716-.715H86.35v-.143zm11.583-1c.715.143 1.144.43 1.287.715 0 .572-1.144 1-2.574 1h-2.43v-1.86h2.288c.572-.143 1 0 1.43.143zm-9.152-1.716c0-.286.286-.43.715-.572.286-.143.43-.143.858-.143h2.002v1.573H91.07c-1.287 0-2.43-.43-2.288-.858z"/><use xlink:href="#BW" y="-35.464"/><use xlink:href="#BQ" x="-44.187" y="-29.03"/></g><ellipse fill="url(#Ad)" cx="93.787" cy="114.584" rx="18.018" ry="6.721"/><use xlink:href="#Bc" x="-0.572" y="-15.444" fill="url(#Ae)"/><use xlink:href="#BK" x="-44.33" y="-30.315" fill="url(#Af)"/><use xlink:href="#BL" x="-44.33" y="-30.46" fill="url(#Ag)"/><use xlink:href="#BM" x="-44.33" y="-30.316" fill="url(#Ah)"/><path fill="url(#Ai)" d="M91.642 121.305h2.145v5.72h-2.145z"/><path d="M101.652 115.156v-.286c-.143-.572-.858-1.144-1.716-1.43v-1c-.143-1.144-2.43-1.716-4.576-1.716h-.858v-.286c0-.143-.143-.43-.43-.43h-1.86c-.143 0-.286.143-.43.286v.286h-.572c-2.288 0-4.72.572-4.862 1.716v1.287c0 .143 0 .43.286.715.143.143.286.286.572.43h-1.144v1.43c0 .143 0 .43.286.715.572.715 2.145 1.144 3.86 1.144h1.573v.715c0 .143.143.43.43.43h2.288c.143 0 .43-.143.43-.43v-.715h2.145c2.145 0 4.72-.572 5.005-1.716v-.143c-.43.143-.43-.143-.43-1zm-11.583.715h1.86l.143-1.86h-1c-2.574 0-4.433-.715-4.3-1.573s2.145-1.43 4.576-1.43h.858v-.715h1.86v.715h1.144c2.145 0 4.147.572 4.147 1.287h0-2.002c0-.143-.143-.286-.43-.43-.43-.143-1.144-.286-1.86-.286H93.93v1.573h2.288c2.43 0 4.72.715 4.862 1.573.143 1-1.86 1.716-4.576 1.716h-2.43v1h-2.288v-1h-2.002c-2.145 0-3.86-.715-3.718-1.43H88.2c.143.572.858.858 1.86.858z" fill="url(#Aj)"/><path d="M86.35 115.3c-.143.715 1.573 1.43 3.718 1.43h2.002v1h2.288v-1h2.43c2.717 0 4.72-.858 4.576-1.716-.286-1-2.43-1.573-4.862-1.573h-2.288v-1.573h1.144c.715 0 1.43.143 1.86.286.286.143.43.286.43.43h2.002c-.143-.715-2.002-1.287-4.147-1.287H94.36v-.715H92.5v.715h-.858c-2.43 0-4.433.572-4.576 1.43s1.86 1.573 4.3 1.573h1l-.143 1.86h-1.86c-1 0-1.716-.286-1.716-.715H86.35v-.143zm11.583-1c.715.143 1.144.43 1.287.715 0 .572-1.144 1-2.574 1h-2.43v-1.86h2.288c.572-.143 1 0 1.43.143zm-9.152-1.716c0-.286.286-.43.715-.572.286-.143.43-.143.858-.143h2.002v1.573H91.07c-1.287 0-2.43-.43-2.288-.858z" fill="url(#Ak)"/><use xlink:href="#BW" y="-36.894" fill="url(#Al)"/><use xlink:href="#BQ" x="-44.187" y="-30.46" fill="url(#Am)"/><g class="B C"><ellipse cx="113.235" cy="153.051" rx="18.018" ry="6.721"/><use xlink:href="#BE" x="-21.307" y="0.858"/><use xlink:href="#BK" x="-24.882" y="8.151"/><use xlink:href="#Bk"/><use xlink:href="#Bl"/></g><ellipse fill="url(#An)" cx="113.235" cy="151.621" rx="18.018" ry="6.721"/><use xlink:href="#BE" x="-21.307" y="-0.572" fill="url(#Ao)"/><use xlink:href="#BK" x="-24.882" y="6.721" fill="url(#Ap)"/><use xlink:href="#Bk" y="-1.43" fill="url(#Aq)"/><use xlink:href="#Bl" y="-1.43" fill="url(#Ar)"/><use xlink:href="#BI" x="-21.306" y="-0.429" fill="url(#As)"/><g fill="#fff"><path d="M115.666 78.69c8.294-16.016 3.146-33.32 3.146-33.32h-11.297c-7.58 19.162 8.15 33.32 8.15 33.32z"/></g><path d="M110.518 50.95s-.572 14.014 1.43 25.168l3.575 2.574s1.144-1.86 1.573-3.29c.572-2.002-3.86-24.3-3.86-24.3h-2.717v-.143z" class="H"/><path fill="url(#At)" d="M107.515 45.23l-1.43 4.72 5.29-2.288z"/><path fill="url(#Au)" d="M111.376 47.66l6.292 2.288 1.144-4.72-1.287-2.574z"/><g fill="#262376"><path d="M102.796 104.574s-2.717 19.162 4.3 41.613l6.435 28.457-.858 4.576 1.86 1.43s8.723-.143 8.58-4.147l-1.43-3.86 1.43-1.43-6.435-28.028 1.716-26.17-5.577-22.022-10 9.58z"/></g><path d="M120.242 140.753c-.286.572-16.588 23.023-16.588 23.023l10 11.01 9.58-17.16-3.003-16.874z" fill="#464163"/><g fill="#262376"><path d="M132.11 97.567l2.717 40.755s.143 3.575-4.862 10.153c-5.148 6.578-18.6 26.17-18.6 26.17s-6.292-8.008-4.147-14.3c.572-1.716 3.003-.572 3.003-.572l13.156-25.168-4.72-17.732-4.004-8.723V87.843l17.446 9.724z"/></g><path d="M107.515 45.23l-6.435 5.434-6.864 1.86 8.723 26.455s-2.86 16.588-2.145 27.313h14.443l1-12.155 5.29 12.155s9.58 1.573 12.012-8.008l-4.576-12.727 4.576-22.88s2.002-9.724 0-16.73l-5.72.43-9.295-1s5.148 17.446-3.146 33.32c.286 0-15.444-14.157-7.865-33.462z" class="D"/><path d="M109.374 48.518l1.144 2.43h2.86l1.144-2.145-3.146-1.144z" class="H"/><path d="M106.228 25.924s-2.43 10.44 0 14.586h1.573v4.862l3.575 2.288 5.863-5.005v-5.577s1.573-2.288 1.144-4.004-1.716 0-1.716 0V25.78h-10.44v.143z" class="I"/><path d="M106.228 26.353h7.293l-.143.858c-.286 1.43.286 2.717 1.573 3.432l.143.143v1.287c0 .858.858 1.43 1.716 1h0s1.144-1.573 1.716 0c0 0 .43 1.716-1.144 4.004h0c1.43-2.002 2.288-4.576 2.288-7.15v-3.003s-.286-4.147-4.576-4.147h-8.866c-1 0-1.86.858-1.86 1.86h0c0 1 .858 1.716 1.86 1.716z" class="H"/><g class="D"><path d="M133.54 45.944l17.59 20.878c.858 1.144 1 2.574.286 3.86l-9.724 17.303-6.578-5.005 7.293-12.727-8.914-7.58c0-.143.906-9.294.048-16.73z"/></g><path fill="url(#Av)" d="M135.257 82.838l-1.144 1.86 5.577 4.433 1.43-1.86z"/><path d="M134.113 84.697l-4.433.286-.143.572 2.43 6.578 3.575-2.002c.286-.143.572-.43.715-.572l1.716-2.002-3.86-2.86z" class="I"/><g class="D"><path d="M94.36 52.665L92.07 69.682l-2.717 7.15-9.295-.572s.715 6.292-2.145 8.15h0c.286.572.858 1 1.43 1h14.443s5.863-.43 7.293-12.584l-6.72-20.163z"/></g><path fill="#5584cb" d="M101.08 72.828l-4.72-14.3 4.004 18.018z"/><path d="M77.914 84.41h0a1.28 1.28 0 0 1-1.287-1.287v-.286s2.574-2.717 1.287-6.864l2.145.143c0 .143 1 5.29-2.145 8.294z" fill="url(#Aw)"/><path d="M77.2 82.266l-4.72-4.433-9.724-2.288 12.298-.286c.715 0 1.144.572 1.144 1.144h0l1.86.858c.143 0 .715 2.574-.858 5.005z" class="I"/><g fill="#b6d8ff"><use xlink:href="#Bm"/><use xlink:href="#Bm" x="-89.375" y="-16.444"/><path d="M180.16 60.244h-.858c-1.716 0-3.146-1.43-3.146-3.146v-.858.858c0 1.716-1.43 3.146-3.146 3.146h-.858.858c1.716 0 3.146 1.43 3.146 3.146v.858-.858c0-1.716 1.43-3.146 3.146-3.146h.858zm-19 18.76h-.858c-1.716 0-3.146-1.43-3.146-3.146V75v.858c0 1.716-1.43 3.146-3.146 3.146h-.143c1.716 0 3.146 1.43 3.146 3.146v.143c0-1.716 1.43-3.146 3.146-3.146h1v-.143zM45.167 64.248h-.858a2.87 2.87 0 0 1-2.86-2.86v-.858.858a2.87 2.87 0 0 1-2.86 2.86h-.858.858a2.87 2.87 0 0 1 2.86 2.86v.858-.858a2.87 2.87 0 0 1 2.86-2.86h.858zM175.3 44.722h-1.716c-3.3 0-6.006-2.717-6.006-6.006V37v1.716c0 3.3-2.717 6.006-6.006 6.006H160h1.716c3.3 0 6.006 2.717 6.006 6.006v1.716-1.716c0-3.3 2.717-6.006 6.006-6.006h1.573z"/></g><circle fill="url(#Ax)" cx="69.62" cy="49.376" r="18.018"/><path d="M83.062 49.376c0 7.436-6.006 13.585-13.585 13.585-7.436 0-13.585-6.006-13.585-13.585 0-7.436 6.006-13.585 13.585-13.585s13.585 6.006 13.585 13.585z" fill="url(#Ay)"/><path d="M69.048 46.087c.286-.143.572-.286 1.144-.286 1.144 0 2.574.286 4.147 1l1.287-3.29c-1.43-.715-2.86-1-4.3-1.144v-1.573h-2.288v1.573c-1.573.143-2.717.572-3.432 1.287s-1.144 1.716-1.144 3.003c0 .858.143 1.573.43 2.145s.715 1 1.287 1.43a6.82 6.82 0 0 0 2.288 1.144c.858.286 1.43.572 2.002.858.43.286.858.43 1 .572s.286.43.286.572c0 .43-.143.572-.43.858-.286.143-.715.286-1.287.286-.715 0-1.573-.143-2.574-.43s-1.86-.715-2.717-1.144v3.86c1.43.715 3.003 1 4.576 1.144V60.1h2.288v-2.288c1.43-.143 2.574-.715 3.29-1.573a4.71 4.71 0 0 0 1.144-3.146c0-1.144-.286-2.145-1-2.86s-1.716-1.287-3.29-1.86c-.715-.286-1.287-.43-1.716-.715-.43-.143-.715-.43-.858-.572s-.286-.43-.286-.572c-.143-.143 0-.286.143-.43z" fill="url(#Az)"/><path d="M69.048 44.8c.286-.143.572-.286 1.144-.286 1.144 0 2.574.286 4.147 1l1.287-3.29c-1.43-.715-2.86-1-4.3-1.144V39.51h-2.288v1.573c-1.573.143-2.717.572-3.432 1.287s-1.144 1.716-1.144 3.003c0 .858.143 1.573.43 2.145s.715 1 1.287 1.43a6.82 6.82 0 0 0 2.288 1.144c.858.286 1.43.572 2.002.858.43.286.858.43 1 .572s.286.43.286.572c0 .43-.143.572-.43.858-.286.43-.858.43-1.43.572-.715 0-1.573-.143-2.574-.43s-1.86-.715-2.717-1.144v3.86c1.43.715 3.003 1 4.576 1.144V59.1h2.288v-2.288c1.43-.143 2.574-.715 3.29-1.573a4.71 4.71 0 0 0 1.144-3.146c0-1.144-.286-2.145-1-2.86s-1.716-1.287-3.29-1.86c-.715-.286-1.287-.43-1.716-.715-.43-.143-.715-.43-.858-.572s-.286-.43-.286-.572c0-.286.143-.572.286-.715z" fill="url(#BA)"/><path fill="url(#BB)" d="M75.626 42.37v1.144l-1.287 3.432v-1.287z"/><path d="M69.62 37.078a13.41 13.41 0 0 1 13.442 12.87v-.572c0-7.436-6.006-13.585-13.585-13.585-7.436 0-13.585 6.006-13.585 13.585v.572c.572-7.15 6.435-12.87 13.728-12.87z" fill="url(#BC)"/></g></g></g></svg>