<svg xmlns="http://www.w3.org/2000/svg" width="220" height="150"><defs><filter x="-3.7%" y="-5.7%" width="107.5%" height="111.4%" id="A"><feOffset dy="1" in="SourceAlpha"/><feGaussianBlur stdDeviation="1"/><feComposite in2="SourceAlpha" operator="out"/><feColorMatrix values="0 0 0 0 0 0 0 0 0 0 0 0 0 0 0 0 0 0 0.11 0" result="C"/><feMerge><feMergeNode in="C"/><feMergeNode in="SourceGraphic"/></feMerge></filter><linearGradient x1="67.1994648%" y1="42.8089045%" x2="35.5934217%" y2="67.8564304%" id="B"><stop stop-color="#98bff9" offset="0%"/><stop stop-color="#6aa5fe" offset="100%"/></linearGradient><linearGradient x1="67.1994648%" y1="41.0564269%" x2="35.5934217%" y2="72.2080613%" id="C"><stop stop-color="#6aa5fe" offset="0%"/><stop stop-color="#8fbbff" offset="100%"/></linearGradient><linearGradient x1="100%" y1="50%" x2="0%" y2="50%" id="D"><stop stop-color="#9cc4ff" offset="0%"/><stop stop-color="#6aa5fe" offset="100%"/></linearGradient></defs><g fill="none" fill-rule="evenodd"><path d="M10 0h200c5.523 0 10 4.477 10 10v140H0V10C0 4.477 4.477 0 10 0z" fill="#f0f7ff"/><g filter="url(#A)" transform="translate(23 18)"><g transform="translate(67.2 14.4)"><g transform="translate(9.6 25.6)" fill-rule="nonzero"><g transform="translate(20.48)"><path d="M23.04 2.074c.538.307 1.152.538 1.7.845l11.213 6.067c1.075.538 2.074 1.152 2.995 1.92s1.7 1.766 1.92 2.918c-4.454.154-9.446-.845-13.286-3.15-2.38-1.46-4.378-3.456-6-5.683-.922-1.306-1.7-2.688-2.38-4.147 1.306.154 2.61.69 3.84 1.23z" fill="#4a90e2"/><path d="M23.578 1.23l-.05.09.587.313 1.23.67c4.07 2.38 8.218 4.685 12.442 6.835s6.144 7.066 8.91 10.906l.768.998c-2.534.23-4.992 1.382-6.912 2.995.46.768 1.075 1.46 1.843 1.997 1.766-1.382 4.07-2.688 6.144-3.6.614.69 1.152 1.382 1.766 1.997a20.85 20.85 0 0 0-6.067 3.84c.768.69 1.536 1.46 2.534 1.92 1.382-1.766 3.072-3.226 5.07-4.224.922.922 1.92 1.766 2.842 2.61-1.843.998-3.38 2.458-4.53 4.224.538.46 1.075 1.075 1.766 1.382 1.306-1.7 2.688-3.072 4.378-4.3 3.917 3.15 8.218 6 12.442 8.755 1.306.845 1.766 2.61 1.536 4.378a2.84 2.84 0 0 0-.845.384c-.614.46-.998 1.075-1.536 1.536-1.536 1.46-3.84 1.766-6 1.613-4.838-.23-9.523-1.997-13.978-3.84-8.525-3.6-16.82-7.987-24.576-13.056-4.762-3.072-13.405-9.14-17.783-12.672l.197-.402-3.458-3.054a31.5 31.5 0 0 1 2.688-3.84c1.92-2.458 4.07-4.762 6.605-6.605C13.594 1.7 15.974.384 18.432.077c1.766-.23 3.533.384 5.146 1.152zM19.26.93L19.2.845c1.613 2.304 5.014 7.682 7.395 9.14 3.763 2.304 9.81 4.068 14.263 3.915-.23-1.152-.998-2.15-1.92-2.918s-1.92-1.382-2.995-1.92L24.73 2.995c-.538-.307-1.152-.614-1.7-.845l.047-.1-.326-.133c-1.144-.468-2.294-.903-3.5-.997z" fill="url(#B)"/><path d="M70.272 43.008a2.84 2.84 0 0 0-.845.384c-.614.46-.998 1.075-1.536 1.536-1.536 1.46-3.84 1.766-6 1.613-4.838-.23-9.523-1.997-13.978-3.84-8.525-3.6-16.82-7.987-24.576-13.056-4.762-3.072-9.293-6.374-13.67-9.907-2.534-1.997-4.915-4.07-7.296-6.22a20.68 20.68 0 0 0-2.304 5.146l6.912 5.07 3.533 2.534c.998.69 4.762 3.072 4.762 3.072l2.765-1.997 4.992 2.918c0 .768-.307 4.224-.307 4.224l3.38 2.074c1.382.845 2.765 1.7 4.224 2.458 2.842 1.613 5.683 3.15 8.602 4.608 6.067 2.995 12.365 5.76 19.123 6.374 3.38.307 6.99.077 9.677-1.997 1.23-1.075 2.227-3.072 2.534-4.992z" fill="#3080e0"/><g fill="#fff"><path d="M54.682 28.493l1.613 1.306c-1.7 1.152-3.072 2.61-4.378 4.3-.69-.307-1.23-.922-1.766-1.382 1.152-1.766 2.688-3.226 4.53-4.224z"/><path d="M50.304 24.346c.46.538.998.998 1.536 1.536-1.997 1.075-3.686 2.458-5.07 4.224-.998-.46-1.766-1.23-2.534-1.92a20.85 20.85 0 0 1 6.067-3.84z"/><path d="M47.386 20.966l1.152 1.382c-2.074.922-4.378 2.227-6.144 3.6-.768-.538-1.382-1.23-1.843-1.997 1.92-1.613 4.3-2.765 6.835-2.995z"/></g></g><g transform="translate(0 19.2)"><g fill="#fff"><path d="M27.725 15.82c-6.374-.077-13.056.46-19.2 1.843 0-.384.077-.998.46-1.152 5.837-1.843 11.98-2.458 18.048-1.92.23.384.46.845.69 1.23z"/><path d="M27.187 12.98c-6.067-.538-12.21-.154-18.048 1.613-.077-.614.307-1.306.69-1.766a31.04 31.04 0 0 1 17.126-1.382c.154.46.154 1.152.23 1.536z"/><path d="M26.19 7.987c.23.46.23 1.075.307 1.536-5.376-1.23-11.136-.922-16.282.998 0-.768.23-1.536.538-2.304 4.992-1.23 10.368-1.23 15.437-.23z"/></g><path d="M24.73 20.9c.922 1.306 1.613 2.842 2.304 4.3 3.456.23 6.912-.538 9.907-2.227.077.922 0 1.843-.154 2.765-.154 1.23-1.843 2.227-2.995 2.842-5.146 2.61-11.213 2.688-16.973 2.61-2.605-.07-5.274-.14-7.83-.625l-.694-.143-.047-.165-.348-.08c-2.632-.635-5.233-1.77-7.208-3.672C.614 25.498.538 24.5.538 23.5c2.15 1.23 4.53 2.074 6.99 2.304l.022.08.487.044c1.352.105 2.657.083 4.022-.122.845-1.306 1.536-2.534 2.304-3.84 3.302-.845 6.912-1.23 10.368-1.075z" fill="#3080e0"/><path d="M27.1 1.613c-4.992 2.61-11.136 3.15-16.59 1.613a23.08 23.08 0 0 1-2.458-.845C14.208.69 20.813.46 27.1 1.613z" fill="#4a90e2"/><path d="M27.955 1.23c-.307.154-.538.307-.845.384C20.813.46 14.208.768 7.987 2.38c.845.307 1.613.614 2.458.845-1.92 3.84-3.763 7.834-5.07 11.904-.69 2.227-1.23 4.685-.23 6.758.538 1.075 1.382 1.997 1.997 2.995.154.307.307.614.384.922C5.07 25.498 2.688 24.73.538 23.5c0-3.456.614-6.835 1.7-10.138C3.533 9.14 5.53 5.146 7.68 1.306c6.605-1.46 13.594-1.46 20.275-.23-.077.077 0 .077 0 .154z" fill="#3080e0"/><path d="M10.214 10.522c5.146-1.92 10.906-2.227 16.282-.998 0-.46-.077-1.075-.307-1.536-5.07-.998-10.445-.922-15.437.307-.307.69-.46 1.46-.538 2.227zm16.82 4.07c-6.067-.538-12.21.077-18.048 1.92-.384.154-.46.768-.46 1.152 6.144-1.46 12.826-1.997 19.2-1.843-.23-.384-.46-.845-.69-1.23zm-17.818 0c5.837-1.843 11.904-2.227 18.048-1.613-.154-.46-.077-1.075-.23-1.536a31.04 31.04 0 0 0-17.126 1.382c-.46.538-.768 1.152-.69 1.766zM27.955 1.23c1.152 3.15 2.61 6.298 4.454 9.14 2.38 3.84 4.3 8.14 4.53 12.518-2.995 1.7-6.45 2.458-9.907 2.227-.69-1.46-1.382-2.995-2.304-4.3-3.456-.154-6.99.23-10.368 1.075a63.46 63.46 0 0 1-2.304 3.84c-1.46.23-2.995.23-4.53.077-.077-.307-.154-.614-.384-.922-.614-1.075-1.46-1.92-1.997-2.995-.998-2.074-.46-4.608.23-6.758 1.306-4.147 3.15-8.064 5.07-11.904 5.453 1.536 11.597.998 16.59-1.613.307-.077.614-.23.922-.384z" fill="url(#C)"/></g></g><path d="M102.4 18.56H.64v63.36a2.55 2.55 0 0 0 .75 1.81 2.55 2.55 0 0 0 1.81.75h99.2a2.55 2.55 0 0 0 2.56-2.56v-60.8a2.55 2.55 0 0 0-2.56-2.56z" stroke="#4a90e2" stroke-width="1.28"/><path d="M0 0h48.8v16a3.2 3.2 0 0 1-3.2 3.2H3.2A3.2 3.2 0 0 1 0 16V0z" fill="#4a90e2" transform="matrix(1 0 0 -1 0 19.199998)"/><path d="M10.032 12.477c1.427 0 2.554-.875 2.554-2.242 0-2.554-3.894-1.97-3.894-3.675 0-.656.547-1.12 1.263-1.12.65 0 1.148.306 1.477.913l.798-.492c-.503-.89-1.296-1.28-2.242-1.28-1.24 0-2.26.766-2.26 2.023 0 2.45 3.894 1.827 3.894 3.713 0 .738-.602 1.302-1.575 1.302-.962 0-1.706-.52-1.843-1.553l-.952.24c.235 1.422 1.433 2.17 2.778 2.17zm5.162-.077V8.966h3.834V12.4H20V4.673h-.962v3.402h-3.834V4.673h-.962V12.4h.962zm10.172.093c2.466 0 3.615-1.854 3.615-3.96S27.832 4.58 25.366 4.58c-2.455 0-3.598 1.848-3.598 3.954s1.143 3.96 3.598 3.96zm0-.86c-1.832 0-2.587-1.433-2.587-3.1 0-1.662.755-3.095 2.587-3.095 1.848 0 2.598 1.433 2.598 3.095 0 1.668-.75 3.1-2.598 3.1zm10.467.766v-.913h-4.118V8.97h3.746v-.89h-3.746V5.56h4.118v-.886h-5.08V12.4h5.08zm3.894.077c1.427 0 2.554-.875 2.554-2.242 0-2.554-3.894-1.97-3.894-3.675 0-.656.547-1.12 1.263-1.12.65 0 1.148.306 1.477.913l.798-.492c-.503-.89-1.296-1.28-2.242-1.28-1.24 0-2.26.766-2.26 2.023 0 2.45 3.894 1.827 3.894 3.713 0 .738-.602 1.302-1.575 1.302-.962 0-1.706-.52-1.843-1.553l-.952.24c.235 1.422 1.433 2.17 2.778 2.17z" fill="#fff" fill-rule="nonzero"/></g><g transform="translate(10.4 22.4)" fill-rule="nonzero"><g fill="#bcdbff"><path d="M20.224 32.512l1.472 3.648c.128.448.32.832.448 1.28-4.352.256-8.704.32-13.12.256.576-1.28 1.216-2.496 1.856-3.712.192-.448.384-.832.64-1.28 2.88 0 5.76-.064 8.704-.192zm-16.32-.128c.954.064 1.908.064 2.862.127l.018-.063c1.536.128 3.136.128 4.736.128-.192.448-.384.896-.64 1.28-.64 1.216-1.28 2.496-1.856 3.712-1.273 0-2.546-.063-3.82-.127l-.02.063c-1.024-.064-2.112-.064-3.136-.128v-.064c.128-.384.256-.768.384-1.216l.192-.576a64.55 64.55 0 0 1 1.28-3.136z"/><path d="M7.817 27.65l-.01.063-2.048-.128v-.064a10.16 10.16 0 0 0 .576-3.904v-.256c0-.256-.064-.576-.064-.832l1.664.128c.063.317.127.696.128 1.076v-.052c0-.384-.064-.768-.064-1.088l3.078.117 1.018.01 5.76-.192c-.064.256-.064.512-.064.768-.064 1.088 0 2.176.256 3.264 0 .32.128.576.192.896 0 .064 0 .064.064.128l-5.376.192c-1.66 0-3.386 0-5.11-.127z"/></g><path d="M21.696 36.16c.32.832.576 1.728.832 2.56 1.408 5.248 2.048 10.688 1.664 16.128-.704 10.368-2.176 20.864-4.288 31.488H9.408c-5.312-14.592-5.44-30.528-1.536-45.44.32-1.088.704-2.176 1.152-3.2 4.416.064 8.832 0 13.12-.256-.128-.448-.256-.832-.448-1.28zM3.648 42.432c.448-1.664.96-3.328 1.536-4.928-1.024-.064-2.112-.064-3.136-.128h0l-.384 1.408C.256 43.968-.256 49.408.128 54.848.896 65.984 2.24 76.544 4.352 86.272h2.304c-1.792-6.848-2.752-13.76-3.712-20.864-1.216-7.616-1.28-15.488.704-22.976zm.256-10.048c.96.064 1.92.064 2.88.128.448-1.6.832-3.2 1.088-4.864-.704-.064-1.344-.064-2.048-.128-.576 1.6-1.216 3.264-1.92 4.864zm9.024-4.608c-.192 1.664-.768 3.264-1.408 4.8 2.88 0 5.76-.064 8.704-.192-.704-1.6-1.344-3.2-1.92-4.864-1.792.192-3.584.256-5.376.256zM9.408 3.072h0c-1.92 4.544-1.92 9.984.128 14.528.768 1.728 1.856 3.392 2.56 5.12a86.57 86.57 0 0 0 5.76-.192c0-.192.064-.448.128-.64.704-3.328 1.92-6.528 1.984-9.472v-.768c-.256-2.624-.832-5.12-1.856-7.488S14.72.192 12.16.128h-.064c-2.496 0-4.8 1.536-5.888 3.776-1.152 2.368-1.792 4.992-1.92 7.744v.64c.128 3.008 1.28 6.144 1.92 9.408.064.256.064.512.128.768.576.064 1.152.064 1.664.128-.32-3.2-1.28-6.336-1.6-9.6-.384-3.584.256-7.552 3.008-9.92z" fill="url(#D)"/><g fill="#3080e0"><path d="M14.272 17.088c.384.704.96 1.472 1.792 1.536.96.064 1.728-.768 2.176-1.664 1.472-3.072.704-6.784-.448-9.984C17.152 5.12 14.4.832 12.736 4.48c-1.536 3.584-.256 9.408 1.536 12.608z"/><path d="M9.408 86.272h-2.88c-1.792-6.848-2.752-13.76-3.712-20.864-1.088-7.616-1.088-15.488.832-22.976.448-1.664.96-3.328 1.536-4.928 1.28.064 2.56.064 3.84.128-.448 1.024-.896 2.048-1.152 3.2-3.904 14.912-3.776 30.848 1.536 45.44zM6.72 32.512c1.6.064 3.136.064 4.736.064.704-1.536 1.28-3.2 1.408-4.8-1.664 0-3.392 0-5.12-.128-.128 1.664-.512 3.264-1.024 4.864zm2.688-29.44C6.656 5.44 6.016 9.472 6.4 13.056c.32 3.264 1.28 6.4 1.6 9.6 1.344.064 2.752.128 4.096.128-.768-1.728-1.792-3.392-2.56-5.12a18.64 18.64 0 0 1-.128-14.592h0z"/></g></g><path stroke="#4a90e2" stroke-width="1.28" d="M.64 18.56h47.52v93.92H.64z"/><path d="M0 0h58.4a3.2 3.2 0 0 1 3.2 3.2V16a3.2 3.2 0 0 1-3.2 3.2H3.2A3.2 3.2 0 0 1 0 16V0z" fill="#4a90e2" transform="matrix(1 0 0 -1 0 19.199998)"/><path d="M9.35 12.4c1.4 0 2.483-.77 2.483-2.17 0-.902-.558-1.7-1.367-1.93.536-.235 1-.848 1-1.608 0-1.444-1.116-2.018-2.368-2.018H6.632V12.4H9.35zm-.06-4.43H7.594V5.548h1.51c.89 0 1.46.4 1.46 1.198 0 .848-.59 1.225-1.274 1.225zm.07 3.51H7.594V8.807h1.88c.875 0 1.405.547 1.405 1.318 0 .902-.53 1.356-1.52 1.356zm7.306 1.012c2.466 0 3.615-1.854 3.615-3.96S19.133 4.58 16.667 4.58c-2.455 0-3.598 1.848-3.598 3.954s1.143 3.96 3.598 3.96zm0-.86c-1.832 0-2.587-1.433-2.587-3.1 0-1.662.755-3.095 2.587-3.095 1.848 0 2.598 1.433 2.598 3.095 0 1.668-.75 3.1-2.598 3.1zm7.54.766l1.887-5.78 1.887 5.78h.952l2.26-7.727h-1l-1.8 6.333L26.478 5.1h-.766l-1.92 5.906-1.8-6.333h-1l2.26 7.727h.957zm12.9 0v-.913h-3.462V4.673h-.962V12.4h4.424zm2.4 0V4.673h-.962V12.4h.962zm3.232 0V6.237l3.637 6.163h.995V4.673h-.93v6.147l-3.648-6.147H41.8V12.4h.93zm9.997.093c1.148 0 2.018-.514 2.494-1.384l.082 1.29h.766V8.353h-2.784v.782h1.837l-.022.503c-.186 1.302-1.066 1.99-2.373 1.99-1.848 0-2.625-1.4-2.625-3.14 0-1.76.853-3.073 2.64-3.073 1.148 0 1.97.514 2.368 1.646l.86-.36c-.585-1.4-1.695-2.133-3.216-2.133-2.428 0-3.61 1.723-3.61 3.96 0 2.23 1.198 3.965 3.582 3.965z" fill="#fff" fill-rule="nonzero"/></g></g></svg>