<svg xmlns="http://www.w3.org/2000/svg" width="220" height="150" fill="none" fill-rule="evenodd"><path d="M10 0h200c5.523 0 10 4.477 10 10v140H0V10C0 4.477 4.477 0 10 0z" fill="#f0f7ff"/><g fill-rule="nonzero"><path d="M49.605 102.77c0 1.2 1.296 3.974 3.456 3.974h15.725c2.074 0 4.234-1.47 7.17-1.47h87.005c1.9 0 6.394-1.2 8.38-2.506s2.16-1.642 2.16-2.506V95.08c0-.778-2.42-1.642-2.42-3.024v-7.7c0-1.987-17.798-14.688-23.5-16.07s-30.586-1.555-37.238-.95-20.995 7.7-30.067 14.342c-9.677 0-20.13 2.42-24.7 5.184s-6.048 7.43-6.048 9.418l.086 6.48z" fill="#6aa5fe"/><path d="M50.728 92.142c-.864 1.642-1.2 3.197-1.2 4.147v6.48c0 1.2 1.296 3.974 3.456 3.974H68.7c2.074 0 4.234-1.47 7.17-1.47h87.005c1.9 0 6.394-1.2 8.38-2.506s2.16-1.642 2.16-2.506V95.08c0-.778-2.42-1.642-2.42-3.024V85.23l-120.27 6.912z" fill="#7fb2ff"/><g fill="#9fc5ff"><path d="M120.366 86.44c.95-10.1 2.333-15.984 2.506-16.675h-.173c-.173.864-1.555 6.74-2.506 16.675-.95 10.022-.173 15.984 0 16.848h.173c-.086-.778-.95-6.74 0-16.848zm-35.164-1.382c.346-.346.518-.95.346-1.728-.173-.864-.778-1.728-1.296-1.987l-.086.173c.518.26 1.037.95 1.2 1.814.173.7 0 1.2-.26 1.555-.605.605-4.752 1.2-12.442 1.9-1.728.173-2.85.173-3.974.173-1.296 0-2.678.086-5.184.26-4.06.346-7.344 1.2-9.158 1.728-.26.086-.518.173-.7.173-.432.086-.7.173-.95.173l-.173.173h.086c.26 0 .605-.086 1.037-.173.173-.086.432-.086.7-.173 1.728-.518 5.098-1.382 9.072-1.728 2.506-.173 3.888-.26 5.184-.26 1.123 0 2.246-.086 3.974-.173 7.862-.605 12-1.296 12.614-1.9z"/><path d="M148.706 82.466c-.346-1.9-8.38-12.614-10.627-12.874-.69-.086-2.074-.173-4.32-.173l-7.085.086c-1.728 0-3.283.086-4.234.086h-1.382c-4.58 0-10.54.173-15.12 1.814-2.678.95-6.22 2.678-10.022 4.838-5.098 2.938-7.862 5.443-8.208 7.344-.432 2.333-.432 13.824-.432 15.638v.518c0 1.728.086 3.715 1.9 3.715h44.842c1.382 0 2.765-.95 3.715-2.592.432-.69 1.47-2.16 2.678-3.715 1.642-2.16 3.63-4.838 4.838-6.826l.086-.173c2.16-3.456 3.715-5.962 3.37-7.7zm-3.456 7.603l-.086.173c-1.2 1.987-3.197 4.666-4.838 6.826-1.2 1.642-2.246 3.024-2.678 3.802-.95 1.555-2.246 2.506-3.542 2.506h-13.65v.086h-.173v-.086H89.176c-1.642 0-1.728-1.814-1.728-3.542v-.518c-.086-1.814 0-13.306.432-15.638.346-1.9 3.024-4.32 8.122-7.258 3.802-2.246 7.344-3.888 10.022-4.838 4.58-1.555 10.454-1.814 15.034-1.814h1.642v-.086l.173.086v.086c.95 0 2.246 0 3.802-.086l7.085-.086c2.246 0 3.63 0 4.32.173 2.16.26 10.11 11.06 10.454 12.787.26 1.47-1.2 3.974-3.283 7.43z"/></g><path d="M152.594 90.933c-6.653 0-12.096 5.443-12.096 12.096 0 .778.086 1.47.173 2.246h22.3c.432 0 .95-.086 1.47-.173.086-.7.173-1.382.173-2.074.086-6.653-5.357-12.096-12-12.096zm-76.637 14.342H86.4c.173-.7.173-1.47.173-2.246 0-6.653-5.443-12.096-12.096-12.096S62.39 96.376 62.39 103.03c0 1.296.173 2.506.605 3.63h5.8c2.074.086 4.147-1.382 7.17-1.382z" fill="#bad5ff"/><circle fill="#1a55b5" cx="74.488" cy="103.029" r="10.368"/><circle fill="#8db9fc" cx="74.488" cy="103.029" r="7.344"/><circle fill="#1a55b5" cx="152.594" cy="103.029" r="10.368"/><circle fill="#8db9fc" cx="152.594" cy="103.029" r="7.344"/><path d="M53.147 89.8s-1.2 1.47-1.382 2.16 0 1.47.95 1.47h5.616c.864 0 2.506-1.382 3.456-2.42.95-1.123 2.333-2.85 1.9-3.1s-5.53.346-10.54 1.9z" fill="#fff"/><path d="M55.912 100.87c-.346-.69-1.123-1.2-1.814-1.2h-4.58v3.1c0 .346.086.778.26 1.296h6.48c.69 0 .95-.518.605-1.2l-.95-1.987z" fill="#1a55b5"/><path d="M80.277 81.688h3.542a6.02 6.02 0 0 0 3.024-.864c1.123-.69 6.134-4.493 9.33-6.307 3.197-1.9 5.01-2.765 5.27-2.938.518-.26.69-.864.086-.864h-2.074s-10.022 4.06-19.18 10.973z" fill="#b1d5ff"/><path d="M91.595 80.392c-.605.432-1.2 1.642 0 1.728s24.97-.864 26.093-.864 1.47-.7 1.642-1.47 1.555-7.7 1.642-8.294.086-1.123-.95-1.123-8.9.26-13.306 1.728-10.282 4.58-15.12 8.294zm32.4-8.812l-.26 8.294c0 .432.173 1.037.95 1.037s24.797-.518 25.834-.605c.95 0 1.47-.346 1.296-1.037s-5.53-7.258-9.936-8.38-15.984-.518-16.502-.518-1.382.26-1.382 1.2z" fill="#f0f7ff"/><path d="M154.667 71.666l-2.074.864c-.432.173-.346.864.778 1.47s4.58 3.542 5.962 4.838 2.333 1.642 3.283 1.642h4.838c-3.37-2.678-8.467-6.22-12.787-8.813z" fill="#b1d5ff"/><path d="M171.17 91.97v-7.085h-5.616c-.864 0-1.296.346-.864 1.47.432 1.2 2.506 4.32 3.1 4.838.605.432 1.123.864 1.9.864.346 0 .864 0 1.47-.086 0 .086 0 .086 0 0zm2.332 6.134v-1.642h-1.814c-.432 0-.864.346-.864.864 0 .432.346.864.864.864h1.814v-.086z" fill="#d31b60"/></g><path d="M193 38.6H26.5v90a2.69 2.69 0 0 0 2.7 2.7H193a2.69 2.69 0 0 0 2.7-2.7V41.3a2.69 2.69 0 0 0-2.7-2.7z" stroke="#4a90e2" stroke-width="1.8" fill-opacity=".175" fill="#0075ff"/><path d="M190.3 34.1h9v9h-9zm0 90h9v9h-9zM22 34.1h9v9h-9zm0 90h9v9h-9zm9.9-85.5h40.5v-18a3.6 3.6 0 0 0-3.6-3.6H35.5a3.6 3.6 0 0 0-3.6 3.6v18z" fill="#4a90e2"/><path d="M45.12 30.805c1.704 0 2.984-.837 3.667-2.412l-1.003-.412c-.523 1.255-1.378 1.8-2.664 1.8-2.08 0-2.953-1.513-2.953-3.47 0-1.98.96-3.378 2.972-3.378 1.304 0 2.22.523 2.62 1.772l1.015-.406c-.658-1.575-1.907-2.4-3.624-2.4-2.72 0-4.06 1.938-4.06 4.454 0 2.5 1.347 4.46 4.03 4.46zm5.322-.105l.738-2.03h3.66l.726 2.03h1.175l-3.3-8.693h-.86l-3.3 8.693h1.18zm4.06-2.96h-2.984l1.49-4.184L54.5 27.74zm4.916 2.96v-3.858h1.01l.554-.012 2.227 3.87h1.237l-2.412-3.974c1.077-.295 1.796-1.1 1.796-2.252 0-1.575-1.274-2.467-2.935-2.467h-2.56V30.7h1.083zm1.57-4.743H59.43V22.98h1.47c1.15 0 1.852.566 1.852 1.513 0 .904-.646 1.433-1.766 1.464z" fill="#fff" fill-rule="nonzero"/></svg>