<svg xmlns="http://www.w3.org/2000/svg" xmlns:xlink="http://www.w3.org/1999/xlink" width="220" height="150"><style><![CDATA[.B{fill:#fff}.C{fill:#a39bad}.D{fill-rule:nonzero}.E{fill:#a49dae}.F{fill:#fefefe}.G{fill:#9892a2}.H{fill:#a59daf}.I{fill:#ccc3d9}.J{fill:#d0c7dd}]]></style><defs><path d="M10 0h200c5.523 0 10 4.477 10 10v140H0V10C0 4.477 4.477 0 10 0z" id="A"/><path id="B" d="M59.176 18.403c.065.065.13.194.194.26l.324-.194s0-.065.065-.065v-.065c-.065-.13-.13-.194-.26-.324-.065.13-.065.26-.065.26l-.26.13z"/><path id="C" d="M50.493 21.254c.065-2.462 2.138-4.406 4.6-4.406 2.462.065 4.406 2.138 4.406 4.6-.065 2.462-2.138 4.406-4.6 4.406-2.527-.065-4.47-2.138-4.406-4.6z"/><path id="D" d="M49.975 21.254c.065-2.722 2.333-4.925 5.12-4.86 2.722.065 4.925 2.333 4.86 5.12-.065 2.722-2.333 4.925-5.12 4.86-2.722-.13-4.925-2.398-4.86-5.12zm.065 0c-.065 2.722 2.074 5 4.795 5.054s5-2.074 5.054-4.795-2.074-5-4.795-5.054c-2.722-.13-5 2.074-5.054 4.795z"/><path id="E" d="M58.4 25.142l.26.26s.065 0 .13.065l.26-.26c-.13 0-.26-.065-.26-.065l-.194-.194-.194.194z"/><path id="F" d="M58.982 24.494l.26.194h.13c.065-.13.13-.194.26-.324h-.26l-.194-.13c-.065.13-.13.194-.194.26z"/><path id="G" d="M56.908 26.114c.065-.065.194-.065.26-.13l.13.26s.13.065.194.13l-.39.194c-.065-.065-.13-.065-.13-.065l-.065-.39z"/><path id="H" d="M57.88 25.984l-.194-.324c.065-.065.194-.13.26-.194l.13.194a.67.67 0 0 0 .259.065c-.13.065-.194.13-.324.194h-.065c0 .13-.065.065-.065.065z"/><path id="I" d="M59.5 23.78l.324.194h.13c.065-.13.13-.26.194-.324h-.26l-.26-.13c-.065.065-.065.13-.13.26z"/><path id="J" d="M60.084 20.865v.324h.39s.065-.065.13-.065v-.39c-.13.065-.194.194-.194.194l-.324-.065z"/><path id="K" d="M56.066 26.373c.13 0 .194-.065.324-.065l.065.26.065.065c.065 0 .065.065.13.13-.13.065-.26.065-.39.13l-.13-.13-.065-.39z"/><path id="L" d="M59.824 22.94l.324.13s.065 0 .13-.065c.065-.13.065-.26.13-.39-.13.065-.26.065-.26.065l-.26-.065c0 .13 0 .26-.065.324z"/><path id="M" d="M59.89 20.023c0 .065.065.194.065.324l.39-.065.13-.13c0-.13-.065-.26-.13-.39l-.194.194-.26.065z"/><path id="N" d="M59.63 19.18c.065.065.065.194.13.26l.324-.13s.065-.065.065-.13c-.065-.13-.13-.26-.194-.324-.065.13-.13.194-.13.194l-.194.13z"/><path id="O" d="M60.02 22.096l.39.065s.065 0 .13-.065c0-.13 0-.26.065-.39l-.26.13h-.26c0 .065 0 .13-.065.26z"/><path id="P" d="M50.3 24.235l.324-.194c.065.065.13.194.194.26l-.194.13s-.065.13-.065.26c-.065-.13-.13-.194-.194-.324V24.3c-.065 0-.065-.065-.065-.065z"/><path id="Q" d="M50.234 23.263c.065.065.065.194.13.26l-.26.13s-.065.13-.13.194l-.194-.39c.065-.065.065-.13.065-.13l.39-.065z"/><path id="R" d="M55.16 26.438h.324v.26s.065.13.194.194h-.39c-.065-.065-.065-.13-.065-.13l-.065-.324z"/><path id="S" d="M51.206 24.753l.194.194-.194.194s0 .13-.065.26l-.26-.26c0-.065.065-.13.065-.13l.26-.26z"/><path id="T" d="M49.52 21.513h.39v.324h-.26s-.13.065-.194.194v-.39c0-.065.065-.13.065-.13z"/><path id="U" d="M49.975 22.42c0 .13.065.194.065.324l-.26.065-.065.065c0 .065-.065.065-.13.13-.065-.13-.065-.26-.13-.39l.13-.13.39-.065z"/><path id="V" d="M53.41 26.244c.065 0 .194.065.26.065l-.065.26a.67.67 0 0 0 .065.259c-.13 0-.26-.065-.39-.13 0-.065-.065-.13-.065-.13l.194-.324z"/><path id="W" d="M54.252 26.438c.13 0 .194 0 .324.065v.26l.13.26c-.13 0-.26 0-.39-.065-.065-.065-.065-.13-.065-.13v-.39z"/><path id="X" d="M52.567 25.855c.065.065.194.065.26.13l-.13.26v.26c-.13-.065-.26-.13-.324-.194v-.13l.194-.324z"/><path id="Y" d="M51.854 25.4c.065.065.13.13.26.194l-.13.194v.26c-.13-.065-.194-.13-.324-.26v-.13l.194-.26z"/><path id="Z" d="M51.595 16.848c.13.065.26.065.26.065l.13.194c.065-.065.194-.13.26-.194l-.194-.324s-.065 0-.065-.065h-.065c-.065.194-.194.26-.324.324z"/><path id="a" d="M55.418 16.005v.26c.13 0 .194 0 .324.065l.065-.39s0-.065-.065-.13c-.13 0-.26 0-.39-.065a.67.67 0 0 0 .065.259z"/><path id="b" d="M57.103 16.718c.065.065.194.065.26.13l.194-.324v-.13c-.13-.065-.26-.13-.324-.194v.26l-.13.26z"/><path id="c" d="M56.325 16.135l-.065.26c.13 0 .194.065.26.065l.13-.324s0-.065-.065-.13c-.13-.065-.26-.065-.39-.13.13.13.13.26.13.26z"/><path id="d" d="M53.344 16.005l.194.194.065.26c.065 0 .194-.065.324-.065l-.065-.39-.13-.13c-.13.065-.26.065-.39.13z"/><path id="e" d="M50.947 18.208c-.065.065-.13.13-.194.26l-.194-.13h-.26c.065-.13.13-.194.26-.324h.13l.26.194z"/><path id="f" d="M50.104 19.764c0 .065-.065.194-.065.26l-.26-.065s-.13.065-.26.065c0-.13.065-.26.13-.39.065 0 .13-.065.13-.065l.324.194z"/><path id="g" d="M54.316 15.81c.065.13.194.194.194.194v.26h.324v-.39s-.065-.065-.065-.13c-.194 0-.324 0-.454.065z"/><path id="h" d="M52.437 16.33a.8.8 0 0 1 .194.13l.13.26c.065-.065.194-.065.26-.13l-.13-.324s-.065-.065-.13-.065-.194.065-.324.13z"/><path id="i" d="M50.493 18.92c-.065.065-.065.194-.13.26l-.26-.13h-.26c.065-.13.13-.26.194-.324h.13l.324.194z"/><path id="j" d="M49.9 20.606c0 .13 0 .194-.065.324h-.26l-.26.13c0-.13 0-.26.065-.39.065-.065.13-.065.13-.065h.39z"/><path id="k" d="M57.88 17.172c.065.065.194.13.26.194l.194-.26v-.13c-.13-.065-.194-.13-.324-.26v.26l-.13.194z"/><path id="l" d="M51.595 17.56l-.194.194-.194-.194s-.13 0-.26-.065l.26-.26c.065 0 .13.065.13.065l.26.26z"/><path id="m" d="M58.593 17.7l.194.194.26-.26s0-.065.065-.13l-.26-.26c0 .13-.065.26-.065.26l-.194.194z"/><path id="n" d="M49.52 22.615s-.065 0 0 0c-.065 0-.065 0 0 0-.065-.065-.065-.065 0 0z"/><path id="o" d="M50.752 21.32c0 2.333 1.88 4.212 4.212 4.212s4.212-1.88 4.212-4.212-1.88-4.212-4.212-4.212-4.212 1.88-4.212 4.212z"/><path id="p" d="M15.696 15.94h-2.462c-2.592 0-4.795 2.01-5 4.6.13-2.85 1.36-6.026 7.452-4.6z"/></defs><g fill="none" fill-rule="evenodd"><mask id="q" class="B"><use xlink:href="#A"/></mask><use fill="#f0f7ff" xlink:href="#A"/><g mask="url(#q)"><g class="D"><path fill="#6aa5fe" d="M121.623 125.184h23.86V80.46l-23.86-12.43z"/><path d="M142.67 118.742v2.177h-18.235v-2.177h18.235zm0-4.536v2.177h-18.235v-2.177h18.235zm0-4.536v2.177h-18.235v-2.177h18.235zm0-4.445v2.177h-18.235v-2.177h18.235zm0-4.536v2.177h-18.235v-2.177h18.235zm0-4.445v2.177h-18.235v-2.177h18.235zm0-4.536v2.177h-18.235v-2.177h18.235zm0-4.536v2.177h-18.235v-2.177h18.235zm0-4.445v2.177h-18.235v-2.177h18.235z" opacity=".33" class="B"/><path fill="#3080e0" d="M112.37 68.03h9.253v57.154h-9.253z"/></g><path fill-opacity=".7" fill="#ff7f7f" d="M112.37 68.03h9.253l23.86 12.43v44.725H112.37z"/><g class="D"><path fill="#6aa5fe" d="M101.27 124.957H68.157V35.688l33.113-17.872z"/><path d="M76.957 114.433v5.443h-4.9v-5.443h4.9zm6.804 0v5.443h-4.9v-5.443h4.9zm6.804 0v5.443h-4.9v-5.443h4.9zm-13.608-7.44v5.443h-4.9v-5.443h4.9zm6.804 0v5.443h-4.9v-5.443h4.9zm6.804 0v5.443h-4.9v-5.443h4.9zm-13.608-7.44v5.443h-4.9v-5.443h4.9zm6.804 0v5.443h-4.9v-5.443h4.9zm6.804 0v5.443h-4.9v-5.443h4.9zm-13.608-7.53v5.443h-4.9v-5.443h4.9zm6.804 0v5.443h-4.9v-5.443h4.9zm6.804 0v5.443h-4.9v-5.443h4.9zm6.804 0v5.443h-4.9v-5.443h4.9zm-20.412-7.44v5.443h-4.9v-5.443h4.9zm6.804 0v5.443h-4.9v-5.443h4.9zm6.804 0v5.443h-4.9v-5.443h4.9zm6.804 0v5.443h-4.9v-5.443h4.9zm-20.412-7.44v5.443h-4.9v-5.443h4.9zm6.804 0v5.443h-4.9v-5.443h4.9zm6.804 0v5.443h-4.9v-5.443h4.9zm6.804 0v5.443h-4.9v-5.443h4.9zm-20.412-7.53v5.443h-4.9v-5.443h4.9zm6.804 0v5.443h-4.9v-5.443h4.9zm6.804 0v5.443h-4.9v-5.443h4.9zm6.804 0v5.443h-4.9v-5.443h4.9zm-20.412-7.44v5.443h-4.9V62.18h4.9zm6.804 0v5.443h-4.9V62.18h4.9zm6.804 0v5.443h-4.9V62.18h4.9zm6.804 0v5.443h-4.9V62.18h4.9zm-20.412-7.53v5.443h-4.9V54.65h4.9zm6.804 0v5.443h-4.9V54.65h4.9zm6.804 0v5.443h-4.9V54.65h4.9zm6.804 0v5.443h-4.9V54.65h4.9zM76.957 47.2v5.443h-4.9V47.2h4.9zm6.804 0v5.443h-4.9V47.2h4.9zm6.804 0v5.443h-4.9V47.2h4.9zm6.804 0v5.443h-4.9V47.2h4.9zm-20.412-7.44v5.443h-4.9V39.77h4.9zm6.804 0v5.443h-4.9V39.77h4.9zm6.804 0v5.443h-4.9V39.77h4.9zm6.804 0v5.443h-4.9V39.77h4.9z" opacity=".353" class="B"/><g fill="#c6bdd2"><path d="M92.47 99.555h4.9v5.443h-4.9zm0 7.44h4.9v5.443h-4.9z"/></g><path d="M92.47 114.433h4.9v5.443h-4.9z" class="B"/><path fill="#3080e0" d="M101.27 17.816h11.43v107.14h-11.43z"/></g><path fill-opacity=".5" fill="#97ed1d" d="M68.157 35.688l33.113-17.872L112.7 17v107.568l-44.544.454z"/><g class="D"><path d="M75.9 130.144c0 .708-.762 1.306-1.742 1.306H60.614c-.925 0-1.742-.6-1.742-1.306s.762-1.306 1.742-1.306h13.554c.98 0 1.742.6 1.742 1.306h0z" opacity=".2" class="G"/><g class="H"><path d="M68.07 114.685h-1.47V67.6c0-4.953-1.905-9.58-5.39-13.064L56.64 49.91l1.034-1.034 4.572 4.627a19.8 19.8 0 0 1 5.824 14.098v47.084z"/><path d="M68.07 114.685H66.6V67.6a19.8 19.8 0 0 1 5.824-14.098l4.572-4.627 1.034 1.034-4.572 4.627c-3.484 3.484-5.4 8.1-5.4 13.064v47.084zm-9.143-65.1L57.24 51.27c-.544.544-1.36.544-1.905 0L50.6 46.536c-.544-.544-.544-1.36 0-1.905l1.687-1.687c.544-.544 1.36-.544 1.905 0l4.736 4.736c.544.5.544 1.36 0 1.905z"/></g><path d="M57.348 49.747l-.98.98c-.327.327-.87.218-1.306-.218l-3.7-3.7c-.38-.38-.5-.98-.218-1.306l.98-.98c.327-.327.87-.218 1.306.218l3.7 3.7c.435.38.5.98.218 1.306z" class="B"/><path d="M75.365 49.584l1.687 1.687c.544.544 1.36.544 1.905 0l4.736-4.736c.544-.544.544-1.36 0-1.905l-1.687-1.687c-.544-.544-1.36-.544-1.905 0l-4.736 4.736c-.5.5-.5 1.36 0 1.905z" class="H"/><path d="M76.998 49.747l.98.98c.327.327.87.218 1.306-.218l3.7-3.7c.38-.38.5-.98.218-1.306l-.98-.98c-.327-.327-.87-.218-1.306.218l-3.7 3.7c-.435.38-.544.98-.218 1.306z" class="B"/><g class="H"><path d="M70.14 127.857h-5.66l.87-19.76c.054-.653.544-1.143 1.198-1.143h1.524c.653 0 1.143.5 1.198 1.143l.87 19.76z"/><path d="M71.882 129.87h-9.1V129a1.21 1.21 0 0 1 1.198-1.198h6.695A1.21 1.21 0 0 1 71.882 129v.87z"/></g></g><path d="M62.846 129.762h9.2v-2.068l-1.905-.354-1.09-20.22-1.09-1.007.218-38.674c.2-2.268.5-4.01.87-5.23s1.144-2.977 2.32-5.275l4.812-5.172.625-.844c.748.852 1.662.724 2.74-.382l4.144-4c.592-.918.48-1.653-.34-2.204s-1.267-1.014-1.35-1.39c-.835-.565-1.706-.333-2.613.696s-2.372 2.492-4.395 4.39c-.3.403-.178.922.367 1.556s.697.788.455.46c-2.412 2.132-4.16 3.966-5.244 5.5s-2.117 3.638-3.1 6.31c-1.82-4.294-3.364-6.894-4.63-7.8s-2.574-2.396-3.92-4.47c.636-.69.414-1.517-.666-2.477l-5.1-4.997-2.18 2.222L50 45.675l2.47 2.713 2.864 2.883 1.133.634 1.153-.99 3.938 3.962c2.494 3.125 3.74 5.07 3.74 5.83 0 1.144 1.807 4.205 1.302 7.968-.337 2.51-.337 9.86 0 22.057v16.22l-.81.163-.49 1.047-.82 19.528-.753.11-.88.634v1.325z" fill="#bb20b5" opacity=".72"/><g transform="matrix(-1 0 0 1 171 103)"><g class="D"><path d="M2.54 18.014L.92 17.7c-.583-.13-.972-.713-.842-1.23l1.685-8.294c.13-.583.648-.972 1.23-.842l1.62.324c.583.13.972.713.842 1.23l-1.685 8.294c-.065.583-.648.972-1.23.842z" class="C"/><path d="M2.606 17.7l-.13 1.685c.13.583.39 1.037.778 1.5.26.324.583.583.972.713.13.065.26.13.39.13l3.5 1.5h55.274l1.426-.194c.778-.13 1.5-.648 1.685-1.426 0-.065.065-.13.065-.194l.13-.39.39-1.944.13-.778c0-.065 0-.194.065-.26v-.39c0-.13-.065-.26-.065-.324 0 0 0-.065-.065-.065l-1.36-3.564c-.065-.194-.13-.324-.194-.454-.065-.065-.13-.194-.194-.26-.13-.13-.26-.324-.39-.39-.065-.065-.13-.13-.26-.194 0 0-.065 0-.065-.065-.065-.065-.13-.065-.194-.13-.065 0-.13-.065-.194-.065s-.065-.065-.13-.065c-.13-.065-.194-.065-.324-.13L48.938 8.23c-.26-.13-.518-.26-.778-.454l-6.415-5.508c-.907-.842-1.555-.972-2.98-1.23-8.165-.648-18.08-.583-26.31 0-1.685 0-3.24.842-4.082 2.268L4.16 10.368l-.065.39-1.23 5.378v.065c-.065.194-.065.39-.065.583-.26.324-.26.583-.194.907z" fill="#c1b9cd"/><path d="M30.924 20.088V2.203a.65.65 0 0 1 .648-.648l6.87.39c1.426.194 1.814.324 2.527.972h0l5.378 4.6c.648.583 1.037 1.36 1.037 2.203v10.303c0 .583-.454 1.037-1.037 1.037H31.96c-.583 0-1.037-.454-1.037-.972z" class="I"/><path d="M31.636 2.592v6.026a.44.44 0 0 0 .454.454l14.062.324c.26 0 .454-.26.324-.518s-.324-.518-.583-.778l-5.378-4.6c-.518-.518-.778-.583-2.138-.778l-6.415-.324c-.194-.13-.324 0-.324.194z" fill="#ddd3ea"/><path d="M63.842 14.515l.842 2.01c.13.39.583.648 1.102.778.13 0 .26.065.39.065h.713c.065 0 .13 0 .194-.065 0 0 0-.065-.065-.065l-1.36-3.564c-.065-.194-.13-.324-.194-.454-.065-.065-.13-.194-.194-.26h-.194c-.518 0-.907.194-1.166.518-.194.26-.194.648-.065 1.037z" class="C"/><path d="M64.1 14.385h0l.842 2.01c.13.324.518.518.907.648.13 0 .194.065.324.065h.713c.26 0 .26-.518-.065-1.5-.26-.778-.518-1.23-.842-1.944-.13-.26-.39-.454-.648-.454h-.26c-.842 0-1.23.518-.972 1.166z" class="J"/><g class="C"><path d="M4.226 21.578c.13.065.26.13.39.13l3.5 1.5h55.274l1.426-.194c.778-.13 1.5-.648 1.685-1.426H4.226z"/><path d="M61.963 23.198h1.426l1.426-.194c.778-.13 1.5-.648 1.685-1.426 0-.065.065-.13.065-.194l.13-.4.4-1.944.13-.778c0-.065 0-.194.065-.26h-1.62c-1.296 0-2.398.842-2.722 2.074l-.972 3.1zm-59.55-4.212c.065 1.037.065 1.36.713 1.944.778.713 4.925 2.268 4.925 2.268l-.454-3.953c-.4-1.426-1.62-2.398-3.1-2.398H2.54c0 .26-.13 2.138-.13 2.138z"/></g><g class="J"><path d="M65.138 19.893c-.065.4.065.713.324.713s.518-.324.583-.713-.065-.713-.324-.713c-.26-.065-.518.324-.583.713zm-61.106-1.1c.065.583-.065 1.037-.324 1.037s-.518-.454-.583-1.037.065-1.037.324-1.037c.26-.065.518.454.583 1.037z"/></g><path d="M2.606 16.2H2.8a.63.63 0 0 0 .648-.518l.972-4.018c.065-.194 0-.39-.13-.583-.13-.13-.324-.26-.518-.26L2.606 16.2z" class="C"/><path d="M2.412 13.996l1.166.26-.324 1.36c-.065.194-.194.324-.39.324h-.26c-.324 0-.583-.324-.454-.583l.26-1.36z" class="J"/><g fill="#c1b9cd"><path d="M3.06 11.47c.065-.194.26-.4.454-.4h.324c.26 0 .454.26.4.518l-.648 2.657-1.166-.26.648-2.527zm43.6-2.528c.065.972-.907.972-1.685 1.037h-.26l.842-3.564c.583.26 1.037 1.685 1.102 2.527z"/></g><g opacity=".75" class="B"><path d="M32.22 2.656l4.73 6.156 4.212.065-4.6-6.026-4.342-.194zm4.86.194l4.536 6.026h1.36l-4.47-5.962h-.194c-.4 0-.778 0-1.23-.065z"/></g><path d="M48.355 23.198h13.22l-.13-1.62-.13-1.037c-.194-2.203-2.074-3.888-4.277-3.888H52.76c-2.268 0-4.082 1.75-4.277 3.953l-.065.972-.065 1.62z" class="C"/><path d="M19.843 1.5l5.702-.065 3.888.065a.79.79 0 0 1 .778.778v18.08a.72.72 0 0 1-.713.713h-5.702c-.324 0-.648-.26-.648-.583v-.065c-.26-2.722-2.592-4.86-5.314-4.86h-.842a1.95 1.95 0 0 1-1.944-1.944V9.784c-.065 0 2.333-8.165 4.795-8.294z" class="I"/><g fill="#ddd3ea"><path d="M12.26 8.618l-5.12-.13c-.324 0-.518-.324-.324-.648L9.28 3.758c.972-1.5 1.75-1.88 5.832-1.88.324 0 .518.324.4.583L12.78 8.294c-.194.194-.324.324-.518.324zm4.343.065l12.506.26a.42.42 0 0 0 .389-.389V2.592c0-.324-.065-.454-.4-.454-.842 0-1.36 0-2.203-.065h-4.47l-2.527.065a.7.7 0 0 0-.454.194c-.972.648-2.203 3.1-3.175 5.832-.065.26.065.518.324.518z"/></g><path d="M9.086 23.198h13.22l-.13-1.62-.13-1.037c-.194-2.203-2.074-3.888-4.277-3.888h-4.277c-2.268 0-4.147 1.75-4.277 3.953l-.065.972-.065 1.62z" class="C"/><g class="B"><path d="M32.025 10.886l2.398.065a.17.17 0 0 0 .194-.194v-.454a.17.17 0 0 0-.194-.194l-2.398-.065a.17.17 0 0 0-.194.194v.454a.17.17 0 0 0 .194.194zm-15.293-.39l2.398.065a.17.17 0 0 0 .194-.194v-.454a.17.17 0 0 0-.194-.194l-2.398-.065a.17.17 0 0 0-.194.194v.454c0 .13.13.194.194.194z"/></g><path d="M.338 15.228l66.485 4.795-.194.972-.13.39c0 .065 0 .13-.065.194-.194.778-.907 1.36-1.685 1.426l-1.426.194h-55.2S3.902 21.643 3.19 20.93c-.648-.583-.648-.907-.713-1.944 0 0 0-.454.065-.972L.986 17.7c-.583-.13-.972-.713-.842-1.23l.194-1.23z" fill="#8e8796" opacity=".15"/><path d="M49.845 21.513v.324h-.26s-.13.065-.194.194l-.065.065c0 .194.065.324.065.518v.065l.194-.194.39-.065c0 .13.065.194.065.324l-.194.065h-.065l-.065.065c0 .065-.065.065-.13.13l-.065.065.194.583s0-.065.065-.065c.065-.065.065-.13.065-.13l.324-.13c.065.065.065.194.13.26l-.26.13s-.065.13-.13.194c0 .065 0 .065-.065.065.065.194.194.324.324.518v-.13c0-.065.065-.065.065-.065l.324-.194c.065.065.13.194.194.26l-.194.13s-.065.13-.065.26v.065c.13.13.26.324.39.454v-.065c0-.065.065-.13.065-.13l.26-.26.194.194-.194.194s0 .13-.065.26v.065c.13.13.324.26.454.39v-.194l.194-.26c.065.065.13.13.26.194l-.13.194v.324l.518.324v-.194l.194-.324c.065.065.194.065.26.13l-.13.26v.324l.583.194v-.065c0-.065-.065-.13-.065-.13l.13-.324c.065 0 .194.065.26.065l-.065.26a.67.67 0 0 0 .065.259v.065c.194.065.39.065.583.13v-.065c-.065-.065-.065-.13-.065-.13l.065-.39c.13 0 .194 0 .324.065v.26l.13.26c0 .065 0 .065.065.065h.583s0-.065-.065-.065c-.065-.065-.065-.13-.065-.13v-.39h.324v.26s.065.13.194.194l.065.065c.194 0 .39-.065.583-.13 0 0-.065 0-.065-.065l-.13-.13-.065-.39c.13 0 .194-.065.324-.065l.065.26.065.065c.065 0 .065.065.13.13l.065.065.583-.194s-.065 0-.065-.065c-.065-.065-.13-.065-.13-.065l-.13-.324c.065-.065.194-.065.26-.13l.13.26s.13.065.194.13c.065 0 .065 0 .065.065.194-.065.324-.194.518-.324h-.13c-.065 0-.065-.065-.065-.065l-.194-.324c.065-.065.194-.13.26-.194l.13.194a.67.67 0 0 0 .259.065h.065c.13-.065.194-.13.26-.26.065-.065.13-.065.194-.13h-.065c-.065 0-.13-.065-.13-.065l-.26-.26.194-.194.194.194s.13 0 .26.065h.065c.13-.13.26-.324.39-.454h-.194l-.454-.324c.065-.065.13-.13.194-.26l.194.13h.324l.324-.518h-.194l-.324-.194c.065-.065.065-.194.13-.26l.26.13h.324l.194-.583h-.065c-.065 0-.13.065-.13.065l-.324-.13c0-.065.065-.194.065-.26l.26.065s.13-.065.26-.065h.065c.065-.194.065-.39.13-.583h-.065c-.065.065-.13.065-.13.065l-.39-.065c0-.13 0-.194.065-.324h.26l.26-.13c.065 0 .065 0 .065-.065v-.583s-.065 0-.065.065c-.065.065-.13.065-.13.065h-.39v-.324h.26s.13-.065.194-.194l.065-.065c0-.194-.065-.39-.13-.583 0 0 0 .065-.065.065l-.13.13-.39.065c0-.13-.065-.194-.065-.324l.26-.065.065-.065c0-.065.065-.065.13-.13l.065-.065-.194-.583s0 .065-.065.065c-.065.065-.065.13-.065.13l-.324.13c-.065-.065-.065-.194-.13-.26l.26-.13s.065-.13.13-.194c0-.065 0-.065.065-.065-.065-.194-.194-.324-.324-.518v.13c0 .065-.065.065-.065.065l-.324.194c-.065-.065-.13-.194-.194-.26l.194-.13s.065-.13.065-.26v-.065c-.13-.13-.26-.324-.39-.454v.065c0 .065-.065.13-.065.13l-.26.26-.194-.194.194-.194s0-.13.065-.26v-.065c-.13-.13-.324-.26-.454-.39v.194l-.194.26c-.065-.065-.13-.13-.26-.194l.13-.194v-.324l-.518-.324v.194l-.194.324c-.065-.065-.194-.065-.26-.13l.13-.26v-.324l-.583-.194v.065c0 .065.065.13.065.13l-.13.324c-.065 0-.194-.065-.26-.065l.065-.26s-.065-.13-.065-.26v-.065c-.194-.065-.39-.065-.583-.13v.065c.065.065.065.13.065.13l-.065.39c-.13 0-.194 0-.324-.065v-.26l-.13-.26c0-.065 0-.065-.065-.065h-.583s0 .065.065.065c.065.065.065.13.065.13v.39h-.324v-.26s-.065-.13-.194-.194l-.065-.065c-.194 0-.39.065-.583.13 0 0 .065 0 .065.065l.13.13.065.39c-.13 0-.194.065-.324.065l-.065-.26-.065-.065c-.065 0-.065-.065-.13-.13l-.065-.065-.583.194s.065 0 .065.065c.065.065.13.065.13.065l.13.324c-.065.065-.194.065-.26.13l-.13-.26s-.13-.065-.194-.13c-.065 0-.065 0-.065-.065-.194.065-.324.194-.518.324h.13c.065 0 .065.065.065.065l.194.324c-.065.065-.194.13-.26.194l-.13-.194s-.13-.065-.26-.065H51.4c-.13.13-.26.194-.39.324l-.065.065h.065c.065 0 .13.065.13.065l.26.26-.194.194-.194-.194s-.13 0-.26-.065h-.065c-.13.13-.26.324-.39.454h.194l.26.194c-.065.065-.13.13-.194.26l-.194-.13h-.324l-.324.518h.194l.324.194c-.065.065-.065.194-.13.26l-.26-.13h-.324l-.194.583h.065c.065 0 .13-.065.13-.065l.324.13c0 .065-.065.194-.065.26l-.26-.065s-.13.065-.26.065h-.065c-.065.194-.065.39-.13.583h.065c.065-.065.13-.065.13-.065l.648.26c0 .13 0 .194-.065.324h-.26l-.26.13c-.065 0-.065 0-.065.065v.583s.065 0 .065-.065c.065-.065.13-.065.13-.065l.39-.065z" fill="#9891a1"/><g class="E"><use xlink:href="#B"/><use xlink:href="#C"/><use xlink:href="#D"/><use xlink:href="#E"/><use xlink:href="#F"/><use xlink:href="#G"/><use xlink:href="#H"/><use xlink:href="#I"/><use xlink:href="#J"/><use xlink:href="#K"/><use xlink:href="#L"/><use xlink:href="#M"/><use xlink:href="#N"/><use xlink:href="#O"/><use xlink:href="#P"/><use xlink:href="#Q"/><use xlink:href="#R"/><use xlink:href="#S"/><use xlink:href="#T"/><use xlink:href="#U"/><use xlink:href="#V"/><use xlink:href="#W"/><use xlink:href="#X"/><use xlink:href="#Y"/><use xlink:href="#Z"/><use xlink:href="#a"/><use xlink:href="#b"/><use xlink:href="#c"/><use xlink:href="#d"/><use xlink:href="#e"/><use xlink:href="#f"/><use xlink:href="#g"/><use xlink:href="#h"/><use xlink:href="#i"/><use xlink:href="#j"/><use xlink:href="#k"/><use xlink:href="#l"/><use xlink:href="#m"/></g><use xlink:href="#m" opacity=".1" class="G"/><g opacity=".15" fill="#9b94a4"><use xlink:href="#n"/></g><use xlink:href="#o" class="F"/><path d="M51.465 21.32c0 1.944 1.555 3.5 3.5 3.5s3.5-1.555 3.5-3.5-1.555-3.5-3.5-3.5c-1.88.065-3.5 1.62-3.5 3.5z" class="E"/><g fill="#e1d7ef"><path d="M54.77 21.902l.39-1.166-3.63-.907-.194.713z"/><path d="M55.483 21.708l-.972-.713-2.074 3.1.648.518z"/><path d="M55.483 20.995l-.972.713 2.333 2.916.648-.518z"/><path d="M54.77 20.736l.39 1.166 3.5-1.36-.26-.713z"/><path d="M54.38 21.32h1.23l-.26-3.694h-.778z"/></g><circle cx="54.964" cy="21.319" r="1.296" class="F"/><path d="M10.576 21.513v.324h-.26s-.13.065-.194.194l-.065.065c0 .194.065.324.065.518v.065l.194-.194.39-.065c0 .13.065.194.065.324l-.194.065h-.065l-.065.065c0 .065-.065.065-.13.13l-.065.065.194.583s0-.065.065-.065c.065-.065.065-.13.065-.13l.324-.13c.065.065.065.194.13.26l-.26.13s-.065.13-.13.194c0 .065 0 .065-.065.065.065.194.194.324.324.518v-.13c0-.065.065-.065.065-.065l.324-.194c.065.065.13.194.194.26l-.194.13s-.065.13-.065.26v.065c.13.13.26.324.39.454v-.065c0-.065.065-.13.065-.13l.26-.26.194.194-.194.194s0 .13-.065.26v.065c.13.13.324.26.454.39v-.194l.194-.26c.065.065.13.13.26.194l-.13.194v.324l.518.324v-.194l.194-.324c.065.065.194.065.26.13l-.13.26v.324l.583.194v-.065c0-.065-.065-.13-.065-.13l.13-.324c.065 0 .194.065.26.065l-.065.26a.67.67 0 0 0 .065.259v.065c.194.065.39.065.583.13v-.065c-.065-.065-.065-.13-.065-.13l.065-.39c.13 0 .194 0 .324.065v.26l.13.26c0 .065 0 .065.065.065h.583s0-.065-.065-.065c-.065-.065-.065-.13-.065-.13v-.39h.324v.26s.065.13.194.194l.065.065c.194 0 .39-.065.583-.13 0 0-.065 0-.065-.065l-.13-.13-.065-.39c.13 0 .194-.065.324-.065l.065.26.065.065c.065 0 .065.065.13.13l.065.065.583-.194s-.065 0-.065-.065c-.065-.065-.13-.065-.13-.065l-.13-.324c.065-.065.194-.065.26-.13l.13.26s.13.065.194.13c.065 0 .065 0 .065.065.194-.065.324-.194.518-.324h-.13c-.065 0-.065-.065-.065-.065l-.194-.324c.065-.065.194-.13.26-.194l.13.194a.67.67 0 0 0 .259.065h.065c.13-.065.194-.13.26-.26.065-.065.13-.065.194-.13h-.065c-.065 0-.13-.065-.13-.065l-.39-.324.194-.194.194.194s.13 0 .26.065h.065c.13-.13.26-.324.39-.454h-.194l-.324-.26c.065-.065.13-.13.194-.26l.194.13h.324l.324-.518h-.194l-.324-.194c.065-.065.065-.194.13-.26l.26.13h.324l.194-.583h-.065c-.065 0-.13.065-.13.065l-.324-.13c0-.065.065-.194.065-.26l.26.065s.13-.065.26-.065h.065c.065-.194.065-.39.13-.583h-.065c-.065.065-.13.065-.13.065h-.454c0-.13 0-.194.065-.324h.26l.26-.13c.065 0 .065 0 .065-.065v-.583s-.065 0-.065.065c-.065.065-.13.065-.13.065h-.39V20.8h.26s.13-.065.194-.194l.065-.065c0-.194-.065-.39-.13-.583 0 0 0 .065-.065.065l-.13.13-.39.065c0-.13-.065-.194-.065-.324l.26-.065.065-.065c0-.065.065-.065.13-.13l.065-.065-.194-.583s0 .065-.065.065c-.065.065-.065.13-.065.13l-.324.13c-.065-.065-.065-.194-.13-.26l.26-.13s.065-.13.13-.194c0-.065 0-.065.065-.065-.065-.194-.194-.324-.324-.518v.13c0 .065-.065.065-.065.065l-.324.324c-.065-.065-.13-.194-.194-.26l.194-.13s.065-.13.065-.26v-.065c-.13-.13-.26-.324-.39-.454v.065c0 .065-.065.13-.065.13l-.26.26-.194-.194.194-.194s0-.13.065-.26v-.065c-.13-.13-.324-.26-.454-.39v.194l-.194.26c-.065-.065-.13-.13-.26-.194l.13-.194v-.324l-.518-.324v.194l-.194.324c-.065-.065-.194-.065-.26-.13l.13-.26v-.324l-.583-.194v.065c0 .065.065.13.065.13l-.13.324c-.065 0-.194-.065-.26-.065l.065-.26s-.065-.13-.065-.26v-.065c-.194-.065-.39-.065-.583-.13v.065c.065.065.065.13.065.13l-.065.39c-.13 0-.194 0-.324-.065v-.26l-.13-.26c0-.065 0-.065-.065-.065h-.583s0 .065.065.065c.065.065.065.13.065.13v.39h-.324v-.26s-.065-.13-.194-.194l-.065-.065c-.194 0-.39.065-.583.13 0 0 .065 0 .065.065l.13.13.065.39c-.13 0-.194.065-.324.065l-.065-.26-.065-.065c-.065 0-.065-.065-.13-.13l-.065-.065-.583.194s.065 0 .065.065c.065.065.13.065.13.065l.13.324c-.065.065-.194.065-.26.13l-.13-.26s-.13-.065-.194-.13c-.065 0-.065 0-.065-.065-.194.065-.324.194-.518.324h.13c.065 0 .065.065.065.065l.194.324c-.065.065-.194.13-.26.194l-.13-.194s-.13-.065-.26-.065h-.065c-.13.13-.26.194-.39.324l-.065.065h.065c.065 0 .13.065.13.065l.26.26-.194.194-.194-.194s-.13 0-.26-.065h-.065c-.13.13-.26.324-.39.454h.194l.26.194c-.065.065-.13.13-.194.26l-.194-.13h-.324l-.324.518h.194l.324.194c-.065.065-.065.194-.13.26l-.26-.13h-.324l-.194.583h.065c.065 0 .13-.065.13-.065l.324.13c0 .065-.065.194-.065.26l-.26-.065s-.13.065-.26.065h-.065c-.065.194-.065.39-.13.583H9.8c.065-.065.13-.065.13-.065l.39.065c0 .13 0 .194-.065.324h-.26l-.26.13c-.065 0-.065 0-.065.065v.583s.065 0 .065-.065c.065-.065.13-.065.13-.065l.713-.065z" fill="#9891a1"/><g class="E"><use xlink:href="#B" x="-39.268"/><use xlink:href="#C" x="-39.269"/><use xlink:href="#D" x="-39.269"/><use xlink:href="#E" x="-39.27"/><use xlink:href="#F" x="-39.269"/><use xlink:href="#G" x="-39.268"/><use xlink:href="#H" x="-39.268"/><use xlink:href="#I" x="-39.268"/><use xlink:href="#J" x="-39.269"/><use xlink:href="#K" x="-39.269"/><use xlink:href="#L" x="-39.268"/><use xlink:href="#M" x="-39.27"/><use xlink:href="#N" x="-39.27"/><use xlink:href="#O" x="-39.27"/><use xlink:href="#P" x="-39.27"/><use xlink:href="#Q" x="-39.269"/><use xlink:href="#R" x="-39.26"/><use xlink:href="#S" x="-39.334"/><use xlink:href="#T" x="-39.268"/><use xlink:href="#U" x="-39.269"/><use xlink:href="#V" x="-39.27"/><use xlink:href="#W" x="-39.269"/><use xlink:href="#X" x="-39.269"/><use xlink:href="#Y" x="-39.334"/><use xlink:href="#Z" x="-39.269"/><use xlink:href="#a" x="-39.268"/><use xlink:href="#b" x="-39.269"/><use xlink:href="#c" x="-39.269"/><use xlink:href="#d" x="-39.268"/><use xlink:href="#e" x="-39.269"/><use xlink:href="#f" x="-39.268"/><use xlink:href="#g" x="-39.268"/><use xlink:href="#h" x="-39.269"/><use xlink:href="#i" x="-39.269"/><use xlink:href="#j" x="-39.26"/><use xlink:href="#k" x="-39.268"/><use xlink:href="#l" x="-39.335"/><use xlink:href="#m" x="-39.269"/></g><use xlink:href="#m" x="-39.269" opacity=".1" class="G"/><g opacity=".15" fill="#9b94a4"><use xlink:href="#n" x="-39.268"/></g><use xlink:href="#o" x="-39.268" class="F"/><path d="M12.196 21.32c0 1.944 1.555 3.5 3.5 3.5s3.5-1.555 3.5-3.5-1.555-3.5-3.5-3.5c-1.944.065-3.5 1.62-3.5 3.5z" class="E"/><g fill="#e1d7ef"><path d="M15.5 21.902l.39-1.166-3.63-.907-.26.713z"/><path d="M16.214 21.708l-.972-.713-2.074 3.1.648.518z"/><path d="M16.214 20.995l-.972.713 2.333 2.916.648-.518z"/><path d="M15.5 20.736l.39 1.166 3.5-1.36-.26-.713z"/><path d="M15.112 21.32h1.23l-.26-3.694h-.778z"/></g><path d="M14.464 21.32a1.3 1.3 0 0 0 1.296 1.296 1.3 1.3 0 0 0 1.296-1.296 1.3 1.3 0 0 0-1.296-1.296c-.778.065-1.296.648-1.296 1.296z" class="F"/><g class="I"><use xlink:href="#p"/><use xlink:href="#p" x="39.592"/></g><g class="B"><g opacity=".75"><path d="M19 3.304l3.953 5.184 4.212.065-4.6-6.1h-.13l-2.527.065c-.065 0-.13 0-.26.13-.194.13-.4.324-.648.648zm4.083-.842l4.6 6.1h1.36l-4.6-6.1h-1.36z"/></g><g opacity=".75"><path d="M8.503 5.637l2 2.592 1.814.065s.065 0 .065-.065l.842-1.88-2.657-3.434c-.454.26-.713.648-1.037 1.102s-.713 1.037-1.037 1.62zm2.462-2.917l2.462 3.24.518-1.102L12.13 2.46c-.518.065-.842.13-1.166.26z"/></g></g></g><path d="M2.304 19.63c.002.082.183.52.544 1.315l5.33 2.48 1.847.454c1.944 2.678 4.212 3.737 6.804 3.175s3.964-1.836 4.115-3.823l27.4.324c5.387 5.09 9.307 5.2 11.76.324.304-.603 1.226-.395 3.383-.648.518-.06 1.372-.234 2.563-.518.643-1.212 1.048-2.703 1.215-4.47s-.552-3.705-2.155-5.81L49.295 6.998 41.875.713 24.768 0 10.966.965C9.878 1.2 8.836 2.098 7.84 3.66S6.057 6.684 5.483 8.04C3.238 6.655 1.93 6.74 1.56 8.294s-.886 3.93-1.545 7.128c-.052.936.038 1.55.27 1.844s.963.55 2.192.773l-.172 1.592z" fill-opacity=".7" fill="#e08709"/></g></g></g></svg>