<svg xmlns="http://www.w3.org/2000/svg" xmlns:xlink="http://www.w3.org/1999/xlink" width="220" height="150"><style><![CDATA[.B{fill:#fff}.C{stroke:#1a55b5}.D{stroke-width:.693}.E{stroke-width:2.772}.F{stroke:#f3f4f6}.G{stroke:#ff746f}.H{fill:#1a55b5}.I{fill:#ff746f}.J{fill:#777470}.K{fill:#eab09d}]]></style><defs><path d="M10 0h200c5.523 0 10 4.477 10 10v140H0V10C0 4.477 4.477 0 10 0z" id="A"/><path id="B" d="M115.678 79.973l6.237 4.85 12.682-12.197"/></defs><g fill="none" fill-rule="evenodd"><mask id="C" class="B"><use xlink:href="#A"/></mask><use fill="#f0f7ff" xlink:href="#A"/><g mask="url(#C)"><g fill-rule="nonzero"><path d="M159.63 204.858H41.128c-3.276 0-5.922-2.646-5.922-5.922V38.16c0-3.276 2.646-5.922 5.922-5.922h118.566c3.276 0 5.922 2.646 5.922 5.922v160.713a5.94 5.94 0 0 1-5.985 5.985z" fill="#6aa5fe"/><path d="M155.6 196.92H45.16a2.46 2.46 0 0 1-2.457-2.457V42.633a2.46 2.46 0 0 1 2.457-2.457H155.6a2.46 2.46 0 0 1 2.457 2.457v151.83c0 1.323-1.134 2.457-2.457 2.457z" class="B"/><path d="M110.302 28.962v-.504a9.87 9.87 0 1 0-19.782 0v.504H75.967v15.12h48.95v-15.12h-14.616z" class="H"/><path fill="#2c6bc6" d="M75.904 28.962v15.12h48.95z"/><circle fill="#527ee9" transform="matrix(.923 -.3848 .3848 .923 73.308086 28.428147)" cx="25.011" cy="10.441" r="5.544"/><path d="M96.442 24.49a5.51 5.51 0 0 0 0 7.875 5.51 5.51 0 0 0 7.875 0l-7.875-7.875z" fill="#6aa5fe"/><path fill="#cde1f9" d="M75.904 44.082h48.95v1.07h-48.95z"/><path d="M171.916 79.488c-.378.315-3.906 2.394-3.906 2.394l-2.52-3.213.756-3.654 5.418.315.945 2.71c.19.693-.19 1.07-.693 1.45z" fill="#fe9280"/><path d="M171.664 75.33l.82 2.394-2.52 1.008c-.504.19-1.008.252-1.512.126-1.07-.315-1.827-1.386-1.7-2.457l.19-1.323 4.725.252z" fill="#e86767"/><path d="M170.404 78.543l2.142.315 1.197-2.016c.252-.378.126-.82-.252-1.07h0c-.378-.252-.82-.126-1.07.252l-2.016 2.52z" class="I"/><path d="M166.56 87.3l-4.473 1.07-1.575 12.915 5.166.252z" class="B"/><path d="M227.356 97.695l-7.812-1.008 1.764-14.175 7.812 1.008c3.906.504 6.678 4.032 6.174 7.938h0a7.19 7.19 0 0 1-7.938 6.237z" fill="#fe9280"/><path d="M227.734 94.42l-7.812-1.008-.378 3.213 7.812 1.008c3.906.504 7.497-2.268 7.938-6.174a7.12 7.12 0 0 0 0-1.638c-1.07 3.087-4.22 5.04-7.56 4.6z" opacity=".2" class="J"/><path fill="#ffc957" d="M218.6 96.56l-82.593-10.647 1.764-14.175 82.593 10.647z"/><path fill="#fff4dd" d="M121.327 76.905l14.68 9.01 1.764-14.175z"/><path opacity=".2" d="M121.327 76.905l14.68 9.01.44-3.465z" class="J"/><path fill="#2a294f" d="M126.24 75.33l-4.914 1.575 4.347 2.646z"/><path fill="#d3eaf5" d="M220.412 82.392l6.813.858-1.778 14.127-6.813-.858z"/><g class="J"><path opacity=".2" d="M223.072 97.128l-87.066-11.214.44-3.465 87.066 11.214z"/><path opacity=".05" d="M224.458 86.418l-87.13-11.214.44-3.465 87.13 11.214z"/></g><g class="K"><path d="M196.55 131.652l1.134-3.024 3.906-.315c.693-.063 1.386.378 1.45.945h0c.063.63-.44 1.197-1.197 1.26l-5.292 1.134z"/><path d="M194.533 128.69l2.016 3.024 3.843-.82-4.347-6.426-.82.567c-1.197.82-1.512 2.457-.693 3.654z"/></g><g class="B"><path d="M197.683 127.683l13.104-13.734-6.867-1.638-7.812 12.16z"/><path d="M205.747 113.382c.693 1.512 2.457 2.142 3.97 1.45s2.142-2.457 1.45-3.97-2.457-2.142-3.97-1.45c-1.512.63-2.142 2.457-1.45 3.97z"/><path d="M206.755 114.58l4.032-4.284-14.112-16.758c-1.197-1.638-3.59-1.827-5.04-.378h0c-1.45 1.45-1.323 6.49.315 7.75l14.805 13.67z"/></g><path d="M189.408 95.187l-5.775-.49.776-9.165 5.775.49z" class="K"/><g class="B"><path d="M162.844 99.333c-1.45.126-2.52 1.323-2.457 2.772.126 1.45 1.323 2.52 2.772 2.457 1.45-.126 2.52-1.323 2.457-2.772-.126-1.45-1.386-2.52-2.772-2.457z"/><path d="M161.143 99.71l2.646 4.725 16.128-3.654c1.953-.504 3.024-5.292 2.268-7.182h0c-.756-1.9-3.024-2.646-4.788-1.638l-16.254 7.75z"/><path d="M194.533 126.297l1.764-30.744c.44-1.638-.693-3.276-2.394-3.528l-14.427-.504c-1.7-.252-3.15 1.07-3.213 2.772l-2.96 37.36 21.23-5.355z"/></g><g fill="#262376"><path d="M180.8 126.297l3.276 10.395-1.45 64.134h-5.922l-3.34-69.174.44-5.355z"/><path d="M180.8 126.297l3.213 12.726h2.33l20.916 61.803h4.85l-14.742-66.087-2.835-8.442z"/></g><path d="M166.183 74.448l-.126.567c-.19 1.26.63 2.394 1.9 2.583l.945.126c1.26.19 2.394-.63 2.583-1.9l.126-.567-5.418-.82z" class="I"/><g class="H"><path d="M183.13 91.647l4.22.2-1.7 2.583v20.412l-2.52 5.23-2.268-6.3 3.15-19.53zm11.466-13.167c-.126-1.386-.63-2.772-1.512-3.78-.82-1.008-1.9-1.7-3.15-2.08-.567-.2-1.134-.315-1.764-.252-.756.063-1.512.2-2.268-.126-1.008-.44-1.764-1.323-2.646-1.9a2.33 2.33 0 0 0-.693-.315h0c-.945-.378-2.205-.252-3.15.378a3.47 3.47 0 0 0-1.071 1.26c-.252.504-.44 1.008-.44 1.575a5.57 5.57 0 0 0 .756 3.15c.567.82 1.26 1.575 2.142 2.08-.063.252-.063.44-.063.693-.2 3.843 2.772 7.056 6.615 7.245a6.96 6.96 0 0 0 6.49-3.717c.693-1.386.945-2.835.756-4.22zm-14.5-1.323c-.315-.378-.63-.756-.882-1.197a5.03 5.03 0 0 1-.882-2.835c.063-1.008.504-2.016 1.26-2.646.315-.252.63-.378 1.008-.504a1.37 1.37 0 0 0-.504.315c-.756.63-1.07 1.638-1.134 2.583-.126 1.9.567 3.717 1.953 4.977v.063c-.252-.2-.567-.44-.82-.756z"/></g><path d="M191.383 82.7c-.126.693.378 1.386 1.07 1.512s1.386-.378 1.512-1.07-.378-1.386-1.07-1.512-1.386.378-1.512 1.07z" class="I"/><path d="M185.713 75.33c-3.087-.063-4.284 2.52-4.284 2.52l-.19.882-.126.82v.126l-.378 2.268c-.504 3.087 1.45 6.174 4.536 6.74 3.15.567 6.11-1.512 6.678-4.662l.44-2.772c.063 0 .945-5.418-6.678-5.922z" class="K"/><path d="M186.343 82.638c-.315-.19-2.583-.63-2.835-.504-.315.19-.44.567-.315.882.063.315.315.567.567.756.63.44 1.512.504 2.142.19.252-.126.504-.315.63-.567s.063-.63-.19-.756z" class="B"/><path d="M186.973 75.456c.756.126 1.512.315 2.268.63.567.19 1.07.504 1.512.882 1.45 1.26.126 3.906-.315 5.292-.126.315-.252.756-.063 1.008.252.315.756.252 1.07 0s.44-.63.63-.945.504-.693.882-.693l-.252-6.3c0-.063-3.97-.126-4.284-.126-.63-.063-1.45.252-1.45.252z" class="H"/></g><path d="M65.618 68.816H86.06V89.26H65.618z" class="C D"/><g class="E"><path d="M71.578 80.042l6.237 4.92 12.682-12.266" class="F"/><path d="M70.192 78.656l6.237 4.92L89.11 71.31" class="G"/></g><path d="M65.618 101.7H86.06v20.444H65.618z" class="C D"/><g class="E"><path d="M71.578 112.927l6.237 4.92 12.682-12.197" class="F"/><path d="M70.192 111.54l6.237 4.92 12.682-12.197" class="G"/></g><path d="M109.718 68.677h20.444V89.12h-20.444z" class="C D"/><g class="E"><use xlink:href="#B" class="F"/><path d="M114.292 78.587l6.237 4.85L133.21 71.24" class="G"/></g><path d="M109.718 101.077h20.444v20.444h-20.444z" class="C D"/><g class="E"><use xlink:href="#B" y="32.4" class="F"/><use xlink:href="#B" x="-1.386" y="31.014" class="G"/></g></g></g></svg>