<svg xmlns="http://www.w3.org/2000/svg" xmlns:xlink="http://www.w3.org/1999/xlink" width="220" height="150"><style><![CDATA[.B{fill:#fff}.C{fill:#5274b8}.D{fill:#eab09d}.E{fill:#6aa5fe}.F{fill-rule:nonzero}]]></style><defs><path d="M10 0h200c5.523 0 10 4.477 10 10v140H0V10C0 4.477 4.477 0 10 0z" id="A"/><path id="B" d="M185.784 76.63c4.056 2.028 5.746 15.2 5.746 15.2l-9.464 3.718s-2.197-5.408-3.55-10.985c-1.183-6.084 3.042-9.97 7.267-7.943z"/><path id="C" d="M158.406 76.63s-5.07 5.746-.338 40.898h25.35c.17-3.887-2.197-22.815 1.52-41.236 0 0-4.394-.845-8.45-1.014-3.21-.17-7.943-.338-10.816 0-3.718.338-7.267 1.352-7.267 1.352z"/><path id="D" d="M164.66 80c1.352 4.394-4.056 17.238-4.056 17.238l-11.323-2.873s1.014-6.59 3.55-11.83c3.55-8.112 10.31-7.774 11.83-2.535z"/><path id="E" d="M167.025 117.528s-1.52 31.94 1.52 45.46c4.9 21.463 26.533 38.532 26.533 38.532l6.93-5.577s-17.914-13.35-19.435-31.096c-1.52-16.055.676-34.476.676-47.32h-16.224z"/><path id="F" d="M158.068 117.528s-7.098 30.25-7.605 44.616c-.507 16.224 5.07 54.418 5.07 54.418h7.943l1.352-53.235c.338-16.055 9.802-45.8 9.802-45.8h-16.562z"/><path id="G" d="M81.342 81.53h-2.197a3.39 3.39 0 0 1-3.38-3.38h0c0-1.86 1.52-3.21 3.21-3.21h2.197c1.86 0 3.21 1.52 3.21 3.21h0c.338 1.86-1.183 3.38-3.042 3.38z"/></defs><g fill="none" fill-rule="evenodd"><mask id="H" class="B"><use xlink:href="#A"/></mask><use fill="#f0f7ff" xlink:href="#A"/><g mask="url(#H)"><g class="D F"><path d="M186.63 80.18l1.86 4.563c.676 1.52 1.183 3.042 1.7 4.563 1.014 3.042 1.86 6.253 2.197 9.633 0 .338.17.845.17 1.183v1.352c0 1.183-.17 2.028-.17 2.873-.338 1.7-.845 3.38-1.352 4.9-1.183 3.042-2.535 5.915-4.056 8.788l-3.21-1.352 2.028-8.788c.338-1.52.507-2.873.507-4.225v-2.028l-.17-.507c0-.338-.17-.676-.17-1.014l-2.535-8.45-1.52-4.225-1.7-4.056 6.422-3.21z"/><path d="M183.756 115.838l-2.535 2.535 5.408 2.535s1.352-2.366.338-4.394l-3.21-.676z"/></g><path fill="#923d39" d="M179.193 121.922l4.732 1.86 2.873-3.042-5.577-2.535z" class="F"/><ellipse cx="78.56" cy="73.12" rx="51.35" ry="48.75" class="B"/><g class="F"><path d="M194.572 125.302c-.17-1.52-.676-2.535-1.183-3.21-.507-.845-1.183-1.352-1.86-1.7l-4.394-2.197-17.576-8.45-8.957-4.056-17.914-7.943-9.126-3.718c-1.86-.676-2.873-2.704-2.197-4.732 7.943-24.843-3.21-52.22-27.378-64.22-26.533-13.013-58.643-2.197-71.656 24.336-13.182 26.533-2.366 58.643 24.167 71.656 23.998 11.83 52.728 4.056 67.6-17.407 1.183-1.7 3.38-2.028 5.07-1.014h0c2.873 1.7 5.577 3.38 8.45 4.9l17.238 9.464 8.62 4.563 8.788 4.563c2.873 1.52 5.746 3.042 8.788 4.394l4.394 2.197c.676.338 1.52.507 2.535.507s2.028-.338 3.21-1.183c2.197-1.352 3.718-3.887 3.38-6.76zM61.57 110.937c-20.956-10.31-29.575-35.66-19.097-56.615 10.31-20.956 35.66-29.575 56.615-19.097 20.956 10.31 29.575 35.66 19.097 56.615s-35.66 29.406-56.615 19.097z" class="E"/><path d="M162.293 60.237c0 .338-.17.676-.507.676-.17 0-.507-.338-.507-.676s.17-.676.507-.676.507.338.507.676z" fill="#263238"/><path d="M162.124 60.913s-.845 2.197-1.86 3.21c.676.676 1.86.338 1.86.338v-3.55z" class="D"/><path d="M163.645 58.21s.17 0 .17-.17v-.338c-1.014-.676-2.028-.338-2.028-.338-.17 0-.17.17-.17.338s.17.17.338.17h0s.845-.338 1.7.338c0-.17 0 0 0 0z" fill="#263238"/><path d="M175.306 63.1c-.676 3.38-1.352 9.802 1.014 12.168 0 0-1.014 3.55-7.436 3.55-7.098 0-3.38-3.55-3.38-3.55 3.887-.845 3.718-3.718 3.042-6.422l6.76-5.746z" class="D"/><path d="M177.672 73.08c.507.17-.17 3.38-.17 3.38s-.845 2.197-11.83 1.52c-.845 0-.507-3.042.338-3.55 2.535-1.52 9.97-1.86 11.66-1.352z" class="E"/><use xlink:href="#B" class="C"/><use xlink:href="#B" class="B"/><path d="M179.7 80.517c-.338-.17-.676-.338-1.014-.338-.338 1.183-.338 2.704 0 4.394 1.352 5.746 3.55 10.985 3.55 10.985l3.042-1.183c-.507-3.55-2.366-12.168-5.577-13.858z" fill="#a6c3e3" opacity=".2"/><use xlink:href="#C" class="C"/><use xlink:href="#C" class="B"/><path d="M163.476 84.066c-1.183-3.38-3.887-4.563-6.76-2.535-.507 3.38-1.014 8.788-.507 17.238h4.9c.17 0 4.056-9.464 2.366-14.703z" fill="#a6c3e3" opacity=".2"/><path d="M162.63 82.714c-.17 1.7-.507 3.21-.845 4.9l-1.183 4.9c-.845 3.21-1.86 6.422-3.38 9.633-.338.845-.845 1.52-1.183 2.366-.17.338-.507.845-.676 1.183s-.676 1.014-1.183 1.52c-1.014 1.014-2.028 1.52-3.042 1.86s-2.028.507-2.873.676c-1.86.17-3.55.17-5.24 0-.845 0-1.7-.17-2.535-.338l-2.535-.507.338-3.55c3.042-.17 6.084-.507 8.788-1.352.676-.17 1.183-.507 1.7-.676s.845-.507.845-.676l.676-1.352c.338-.676.507-1.183.845-1.86.507-1.352 1.014-2.704 1.352-4.225.507-1.352.845-2.873 1.183-4.394l1.014-4.563c.338-1.52.507-3.042.845-4.394l7.098.845z" class="D"/><use xlink:href="#D" class="C"/><use xlink:href="#D" class="B"/><g class="D"><path d="M138.464 105.19l-5.408-.17 2.535 5.577s2.197.338 4.056-2.704l1.86-2.197-2.197-.507h-.845z"/><path d="M129.676 106.205l3.042 4.563 2.873-.17-2.535-5.577zm45.46-46.813c-.338 4.732-.17 7.436-2.535 9.802-3.55 3.55-9.295 1.52-10.478-3.2-1.014-4.225-.338-11.154 4.225-13.013 4.394-1.7 8.957 1.7 8.788 6.422z"/></g><path d="M178.855 54.998s2.535.676 1.7 3.55c-1.183 4.225-3.887 9.126-7.436 9.464-4.394.338-6.422-4.225-6.93-8.957-2.704-1.86-4.563-3.55-4.056-5.408 1.014-2.873 4.394-5.408 9.97-4.732 5.746.845 8.45 4.394 6.76 6.084z" fill="#1a55b5"/><path d="M168.884 60.237c0 1.183-.676 2.366-1.352 3.21-1.014 1.183-2.028.507-2.366-1.014-.17-1.183.17-3.38 1.52-3.887 1.183-.676 2.197.338 2.197 1.7z" fill="#ca8f7c"/><use xlink:href="#E" class="C"/><use xlink:href="#E" fill="#262376"/><path d="M169.56 126.992c-.676-1.183-1.86 2.535-2.704 7.267 0 6.59.17 14.027.676 20.28 4.225-8.112 3.38-25.012 2.028-27.547z" fill="#000" opacity=".2"/><use xlink:href="#F" class="C"/><use xlink:href="#F" fill="#262376"/><path d="M106.185 92.01H54.302c-2.028 0-3.718-1.7-3.718-3.718V69.363c0-2.028 1.7-3.718 3.718-3.718h51.883c2.028 0 3.718 1.7 3.718 3.718V88.29c0 2.028-1.7 3.718-3.718 3.718z" class="E"/><path d="M87.933 61.42h-15.38c-2.366 0-4.394-2.028-4.394-4.394V52.97c0-2.366 2.028-4.394 4.394-4.394h15.38c2.366 0 4.394 2.028 4.394 4.394v3.887c0 2.535-1.86 4.563-4.394 4.563zm-15.38-9.633c-.676 0-1.183.507-1.183 1.183v3.887c0 .676.507 1.183 1.183 1.183h15.38c.676 0 1.183-.507 1.183-1.183V52.97c0-.676-.507-1.183-1.183-1.183h-15.38z" fill="#3080e0"/><path d="M108.55 65.645H51.936c-.845 0-1.52.676-1.52 1.52v7.605L80 80.348h.507l29.406-5.746v-7.605c0-.845-.507-1.352-1.352-1.352z" fill="#000" opacity=".2"/><path d="M110.072 72.912l-29.575 5.746H80l-29.575-5.746c-.676-.17-1.183-.676-1.183-1.352V57.364c0-.845.676-1.352 1.352-1.352h58.98c.845 0 1.352.676 1.352 1.352V71.56c.338.676-.17 1.352-.845 1.352z" class="E"/><use xlink:href="#G" class="C"/><use xlink:href="#G" class="B"/></g></g></g></svg>